<svg width="170" height="16" viewBox="0 0 170 16" fill="none" xmlns="http://www.w3.org/2000/svg">
<path d="M10.416 9.088C10.2133 9.77067 9.89333 10.3413 9.456 10.8C9.01867 11.2587 8.50133 11.6 7.904 11.824C7.30667 12.048 6.65067 12.16 5.936 12.16C4.89067 12.16 3.984 11.9413 3.216 11.504C2.45867 11.0667 1.872 10.4427 1.456 9.632C1.05067 8.82133 0.848 7.85067 0.848 6.72C0.848 5.58933 1.05067 4.61867 1.456 3.808C1.872 2.99733 2.45867 2.37333 3.216 1.936C3.984 1.49867 4.88 1.28 5.904 1.28C6.62933 1.28 7.28533 1.38133 7.872 1.584C8.45867 1.776 8.95467 2.07467 9.36 2.48C9.776 2.88533 10.08 3.39733 10.272 4.016L8.272 4.864C8.09067 4.224 7.81333 3.77067 7.44 3.504C7.06667 3.22667 6.58667 3.088 6 3.088C5.424 3.088 4.91733 3.22667 4.48 3.504C4.05333 3.78133 3.72267 4.192 3.488 4.736C3.25333 5.26933 3.136 5.93067 3.136 6.72C3.136 7.49867 3.24267 8.16 3.456 8.704C3.68 9.248 4.00533 9.65867 4.432 9.936C4.85867 10.2133 5.38133 10.352 6 10.352C6.576 10.352 7.072 10.1973 7.488 9.888C7.91467 9.57867 8.21333 9.10933 8.384 8.48L10.416 9.088ZM12.3939 12V4H14.2979L14.4419 5.568C14.6552 5.01333 14.9645 4.58667 15.3699 4.288C15.7859 3.98933 16.3032 3.84 16.9219 3.84C17.1032 3.84 17.2685 3.856 17.4179 3.888C17.5672 3.92 17.6899 3.96267 17.7859 4.016L17.5299 5.856C17.4232 5.81333 17.2899 5.78133 17.1299 5.76C16.9805 5.73867 16.7832 5.728 16.5379 5.728C16.2179 5.728 15.9085 5.808 15.6099 5.968C15.3112 6.11733 15.0659 6.352 14.8739 6.672C14.6819 6.98133 14.5859 7.376 14.5859 7.856V12H12.3939ZM23.0196 12.16C22.177 12.16 21.441 11.9947 20.8116 11.664C20.193 11.3333 19.713 10.8587 19.3716 10.24C19.0303 9.62133 18.8596 8.87467 18.8596 8C18.8596 7.12533 19.0303 6.37867 19.3716 5.76C19.713 5.14133 20.1876 4.66667 20.7956 4.336C21.4143 4.00533 22.1183 3.84 22.9076 3.84C23.7183 3.84 24.4063 4.00533 24.9716 4.336C25.537 4.656 25.969 5.09867 26.2676 5.664C26.5663 6.21867 26.7156 6.85333 26.7156 7.568C26.7156 7.78133 26.7103 7.984 26.6996 8.176C26.689 8.368 26.673 8.53867 26.6516 8.688H20.2676V7.168H25.6916L24.6356 7.552C24.6356 6.88 24.481 6.36267 24.1716 6C23.873 5.63733 23.4463 5.456 22.8916 5.456C22.4863 5.456 22.1343 5.552 21.8356 5.744C21.5476 5.936 21.329 6.224 21.1796 6.608C21.0303 6.98133 20.9556 7.456 20.9556 8.032C20.9556 8.59733 21.0356 9.06667 21.1956 9.44C21.3663 9.80267 21.601 10.0747 21.8996 10.256C22.209 10.4373 22.577 10.528 23.0036 10.528C23.473 10.528 23.8516 10.4373 24.1396 10.256C24.4276 10.0747 24.6516 9.824 24.8116 9.504L26.5556 10.176C26.385 10.592 26.1236 10.9493 25.7716 11.248C25.4303 11.5467 25.0196 11.776 24.5396 11.936C24.0703 12.0853 23.5636 12.16 23.0196 12.16ZM33.4532 6.896C33.4532 6.43733 33.3199 6.08 33.0532 5.824C32.7972 5.568 32.4559 5.44 32.0292 5.44C31.6346 5.44 31.2879 5.54133 30.9892 5.744C30.6906 5.94667 30.4719 6.28267 30.3332 6.752L28.4612 6.176C28.6426 5.472 29.0372 4.90667 29.6452 4.48C30.2639 4.05333 31.0906 3.84 32.1252 3.84C32.8292 3.84 33.4426 3.952 33.9652 4.176C34.4879 4.38933 34.8932 4.71467 35.1812 5.152C35.4799 5.58933 35.6292 6.13867 35.6292 6.8V10.048C35.6292 10.4533 35.8212 10.656 36.2052 10.656C36.3866 10.656 36.5572 10.6293 36.7172 10.576L36.5892 11.936C36.3119 12.0747 35.9652 12.144 35.5492 12.144C35.1759 12.144 34.8399 12.08 34.5412 11.952C34.2426 11.824 34.0079 11.632 33.8372 11.376C33.6666 11.1093 33.5812 10.7787 33.5812 10.384V10.32L33.9652 10.256C33.9012 10.6613 33.7252 11.008 33.4372 11.296C33.1492 11.5733 32.7972 11.7867 32.3812 11.936C31.9759 12.0853 31.5546 12.16 31.1172 12.16C30.5732 12.16 30.1039 12.08 29.7092 11.92C29.3146 11.7493 29.0106 11.504 28.7972 11.184C28.5839 10.864 28.4772 10.4693 28.4772 10C28.4772 9.40267 28.6692 8.91733 29.0532 8.544C29.4372 8.16 29.9866 7.89867 30.7012 7.76L33.7092 7.152L33.6932 8.512L31.7732 8.896C31.4106 8.97067 31.1332 9.072 30.9412 9.2C30.7599 9.31733 30.6692 9.51467 30.6692 9.792C30.6692 10.0587 30.7652 10.2613 30.9572 10.4C31.1599 10.5387 31.3999 10.608 31.6772 10.608C31.9012 10.608 32.1199 10.5813 32.3332 10.528C32.5466 10.4747 32.7386 10.3893 32.9092 10.272C33.0799 10.1547 33.2132 9.99467 33.3092 9.792C33.4052 9.58933 33.4532 9.344 33.4532 9.056V6.896ZM40.9202 1.552V9.392C40.9202 9.776 41.0162 10.0587 41.2082 10.24C41.4109 10.4107 41.6829 10.496 42.0242 10.496C42.2909 10.496 42.5256 10.4587 42.7282 10.384C42.9309 10.2987 43.1122 10.1867 43.2722 10.048L43.6242 11.504C43.3682 11.7067 43.0482 11.8667 42.6642 11.984C42.2802 12.1013 41.8749 12.16 41.4482 12.16C40.9149 12.16 40.4402 12.08 40.0242 11.92C39.6189 11.76 39.2989 11.504 39.0642 11.152C38.8402 10.8 38.7282 10.3307 38.7282 9.744V2.16L40.9202 1.552ZM43.4802 4V5.632H37.2562V4H43.4802ZM48.9952 12.16C48.1526 12.16 47.4166 11.9947 46.7872 11.664C46.1686 11.3333 45.6886 10.8587 45.3472 10.24C45.0059 9.62133 44.8352 8.87467 44.8352 8C44.8352 7.12533 45.0059 6.37867 45.3472 5.76C45.6886 5.14133 46.1632 4.66667 46.7712 4.336C47.3899 4.00533 48.0939 3.84 48.8832 3.84C49.6939 3.84 50.3819 4.00533 50.9472 4.336C51.5126 4.656 51.9446 5.09867 52.2432 5.664C52.5419 6.21867 52.6912 6.85333 52.6912 7.568C52.6912 7.78133 52.6859 7.984 52.6752 8.176C52.6646 8.368 52.6486 8.53867 52.6272 8.688H46.2432V7.168H51.6672L50.6112 7.552C50.6112 6.88 50.4566 6.36267 50.1472 6C49.8486 5.63733 49.4219 5.456 48.8672 5.456C48.4619 5.456 48.1099 5.552 47.8112 5.744C47.5232 5.936 47.3046 6.224 47.1552 6.608C47.0059 6.98133 46.9312 7.456 46.9312 8.032C46.9312 8.59733 47.0112 9.06667 47.1712 9.44C47.3419 9.80267 47.5766 10.0747 47.8752 10.256C48.1846 10.4373 48.5526 10.528 48.9792 10.528C49.4486 10.528 49.8272 10.4373 50.1152 10.256C50.4032 10.0747 50.6272 9.824 50.7872 9.504L52.5312 10.176C52.3606 10.592 52.0992 10.9493 51.7472 11.248C51.4059 11.5467 50.9952 11.776 50.5152 11.936C50.0459 12.0853 49.5392 12.16 48.9952 12.16ZM64.6395 6.896C64.6395 6.43733 64.5062 6.08 64.2395 5.824C63.9835 5.568 63.6422 5.44 63.2155 5.44C62.8208 5.44 62.4742 5.54133 62.1755 5.744C61.8768 5.94667 61.6582 6.28267 61.5195 6.752L59.6475 6.176C59.8288 5.472 60.2235 4.90667 60.8315 4.48C61.4502 4.05333 62.2768 3.84 63.3115 3.84C64.0155 3.84 64.6288 3.952 65.1515 4.176C65.6742 4.38933 66.0795 4.71467 66.3675 5.152C66.6662 5.58933 66.8155 6.13867 66.8155 6.8V10.048C66.8155 10.4533 67.0075 10.656 67.3915 10.656C67.5728 10.656 67.7435 10.6293 67.9035 10.576L67.7755 11.936C67.4982 12.0747 67.1515 12.144 66.7355 12.144C66.3622 12.144 66.0262 12.08 65.7275 11.952C65.4288 11.824 65.1942 11.632 65.0235 11.376C64.8528 11.1093 64.7675 10.7787 64.7675 10.384V10.32L65.1515 10.256C65.0875 10.6613 64.9115 11.008 64.6235 11.296C64.3355 11.5733 63.9835 11.7867 63.5675 11.936C63.1622 12.0853 62.7408 12.16 62.3035 12.16C61.7595 12.16 61.2902 12.08 60.8955 11.92C60.5008 11.7493 60.1968 11.504 59.9835 11.184C59.7702 10.864 59.6635 10.4693 59.6635 10C59.6635 9.40267 59.8555 8.91733 60.2395 8.544C60.6235 8.16 61.1728 7.89867 61.8875 7.76L64.8955 7.152L64.8795 8.512L62.9595 8.896C62.5968 8.97067 62.3195 9.072 62.1275 9.2C61.9462 9.31733 61.8555 9.51467 61.8555 9.792C61.8555 10.0587 61.9515 10.2613 62.1435 10.4C62.3462 10.5387 62.5862 10.608 62.8635 10.608C63.0875 10.608 63.3062 10.5813 63.5195 10.528C63.7328 10.4747 63.9248 10.3893 64.0955 10.272C64.2662 10.1547 64.3995 9.99467 64.4955 9.792C64.5915 9.58933 64.6395 9.344 64.6395 9.056V6.896ZM74.5632 12V4H76.5312L76.6592 6.4L76.3872 6.144C76.5152 5.62133 76.7179 5.18933 76.9952 4.848C77.2726 4.50667 77.6086 4.256 78.0032 4.096C78.4086 3.92533 78.8512 3.84 79.3312 3.84C79.8859 3.84 80.3766 3.94667 80.8032 4.16C81.2406 4.37333 81.5819 4.69867 81.8272 5.136C82.0832 5.56267 82.2112 6.10133 82.2112 6.752V12H80.0192V7.376C80.0192 6.69333 79.8859 6.224 79.6192 5.968C79.3526 5.70133 79.0059 5.568 78.5792 5.568C78.2806 5.568 77.9872 5.64267 77.6992 5.792C77.4219 5.93067 77.1926 6.16 77.0112 6.48C76.8406 6.8 76.7552 7.22667 76.7552 7.76V12H74.5632ZM88.5015 12.16C87.6588 12.16 86.9228 11.9947 86.2935 11.664C85.6748 11.3333 85.1948 10.8587 84.8535 10.24C84.5122 9.62133 84.3415 8.87467 84.3415 8C84.3415 7.12533 84.5122 6.37867 84.8535 5.76C85.1948 5.14133 85.6695 4.66667 86.2775 4.336C86.8962 4.00533 87.6002 3.84 88.3895 3.84C89.2002 3.84 89.8882 4.00533 90.4535 4.336C91.0188 4.656 91.4508 5.09867 91.7495 5.664C92.0482 6.21867 92.1975 6.85333 92.1975 7.568C92.1975 7.78133 92.1922 7.984 92.1815 8.176C92.1708 8.368 92.1548 8.53867 92.1335 8.688H85.7495V7.168H91.1735L90.1175 7.552C90.1175 6.88 89.9628 6.36267 89.6535 6C89.3548 5.63733 88.9282 5.456 88.3735 5.456C87.9682 5.456 87.6162 5.552 87.3175 5.744C87.0295 5.936 86.8108 6.224 86.6615 6.608C86.5122 6.98133 86.4375 7.456 86.4375 8.032C86.4375 8.59733 86.5175 9.06667 86.6775 9.44C86.8482 9.80267 87.0828 10.0747 87.3815 10.256C87.6908 10.4373 88.0588 10.528 88.4855 10.528C88.9548 10.528 89.3335 10.4373 89.6215 10.256C89.9095 10.0747 90.1335 9.824 90.2935 9.504L92.0375 10.176C91.8668 10.592 91.6055 10.9493 91.2535 11.248C90.9122 11.5467 90.5015 11.776 90.0215 11.936C89.5522 12.0853 89.0455 12.16 88.5015 12.16ZM104.476 4H106.812L104.252 12H101.724L99.9804 6.56L98.3004 12H95.7724L93.2124 4H95.5484L97.1484 10.128L98.9244 4H101.1L102.892 10.128L104.476 4ZM113.359 15.36V4H115.327L115.471 6.544L115.199 6.256C115.295 5.78667 115.471 5.37067 115.727 5.008C115.994 4.64533 116.33 4.36267 116.735 4.16C117.14 3.94667 117.594 3.84 118.095 3.84C118.746 3.84 119.327 4.00533 119.839 4.336C120.351 4.66667 120.751 5.14133 121.039 5.76C121.338 6.368 121.487 7.10933 121.487 7.984C121.487 8.85867 121.338 9.61067 121.039 10.24C120.74 10.8587 120.33 11.3333 119.807 11.664C119.295 11.9947 118.708 12.16 118.047 12.16C117.343 12.16 116.756 11.9627 116.287 11.568C115.828 11.1733 115.514 10.6773 115.343 10.08L115.551 9.744V15.36H113.359ZM117.407 10.48C117.994 10.48 118.452 10.272 118.783 9.856C119.124 9.42933 119.295 8.81067 119.295 8C119.295 7.18933 119.13 6.576 118.799 6.16C118.479 5.73333 118.026 5.52 117.439 5.52C117.066 5.52 116.735 5.62133 116.447 5.824C116.17 6.016 115.951 6.29867 115.791 6.672C115.631 7.03467 115.551 7.47733 115.551 8C115.551 8.512 115.626 8.95467 115.775 9.328C115.924 9.70133 116.138 9.98933 116.415 10.192C116.703 10.384 117.034 10.48 117.407 10.48ZM123.71 12V4H125.614L125.758 5.568C125.971 5.01333 126.281 4.58667 126.686 4.288C127.102 3.98933 127.619 3.84 128.238 3.84C128.419 3.84 128.585 3.856 128.734 3.888C128.883 3.92 129.006 3.96267 129.102 4.016L128.846 5.856C128.739 5.81333 128.606 5.78133 128.446 5.76C128.297 5.73867 128.099 5.728 127.854 5.728C127.534 5.728 127.225 5.808 126.926 5.968C126.627 6.11733 126.382 6.352 126.19 6.672C125.998 6.98133 125.902 7.376 125.902 7.856V12H123.71ZM134.272 3.84C135.083 3.84 135.792 4.00533 136.4 4.336C137.019 4.66667 137.499 5.14133 137.84 5.76C138.192 6.37867 138.368 7.12533 138.368 8C138.368 8.864 138.192 9.61067 137.84 10.24C137.499 10.8587 137.019 11.3333 136.4 11.664C135.792 11.9947 135.083 12.16 134.272 12.16C133.472 12.16 132.763 11.9947 132.144 11.664C131.525 11.3333 131.04 10.8587 130.688 10.24C130.347 9.61067 130.176 8.864 130.176 8C130.176 7.12533 130.347 6.37867 130.688 5.76C131.04 5.14133 131.525 4.66667 132.144 4.336C132.763 4.00533 133.472 3.84 134.272 3.84ZM134.272 5.472C133.867 5.472 133.52 5.568 133.232 5.76C132.955 5.94133 132.741 6.21867 132.592 6.592C132.443 6.96533 132.368 7.43467 132.368 8C132.368 8.56533 132.443 9.03467 132.592 9.408C132.741 9.78133 132.955 10.064 133.232 10.256C133.52 10.4373 133.867 10.528 134.272 10.528C134.667 10.528 135.003 10.4373 135.28 10.256C135.568 10.064 135.787 9.78133 135.936 9.408C136.085 9.03467 136.16 8.56533 136.16 8C136.16 7.43467 136.085 6.96533 135.936 6.592C135.787 6.21867 135.568 5.94133 135.28 5.76C135.003 5.568 134.667 5.472 134.272 5.472ZM141.626 2.848C141.167 2.848 140.826 2.752 140.602 2.56C140.378 2.35733 140.266 2.064 140.266 1.68C140.266 1.28533 140.378 0.991999 140.602 0.799999C140.826 0.597333 141.167 0.495999 141.626 0.495999C142.085 0.495999 142.426 0.597333 142.65 0.799999C142.874 0.991999 142.986 1.28533 142.986 1.68C142.986 2.064 142.874 2.35733 142.65 2.56C142.426 2.752 142.085 2.848 141.626 2.848ZM142.714 4V12.592C142.714 13.2853 142.586 13.84 142.33 14.256C142.085 14.672 141.749 14.9707 141.322 15.152C140.895 15.344 140.41 15.44 139.866 15.44C139.471 15.44 139.114 15.392 138.794 15.296C138.474 15.2107 138.197 15.088 137.962 14.928L138.298 13.36C138.426 13.4667 138.586 13.5573 138.778 13.632C138.97 13.7067 139.183 13.744 139.418 13.744C139.749 13.744 140.015 13.6427 140.218 13.44C140.421 13.2373 140.522 12.8853 140.522 12.384V4H142.714ZM149.07 12.16C148.227 12.16 147.491 11.9947 146.862 11.664C146.243 11.3333 145.763 10.8587 145.422 10.24C145.08 9.62133 144.91 8.87467 144.91 8C144.91 7.12533 145.08 6.37867 145.422 5.76C145.763 5.14133 146.238 4.66667 146.846 4.336C147.464 4.00533 148.168 3.84 148.958 3.84C149.768 3.84 150.456 4.00533 151.022 4.336C151.587 4.656 152.019 5.09867 152.318 5.664C152.616 6.21867 152.766 6.85333 152.766 7.568C152.766 7.78133 152.76 7.984 152.75 8.176C152.739 8.368 152.723 8.53867 152.702 8.688H146.318V7.168H151.742L150.686 7.552C150.686 6.88 150.531 6.36267 150.222 6C149.923 5.63733 149.496 5.456 148.942 5.456C148.536 5.456 148.184 5.552 147.886 5.744C147.598 5.936 147.379 6.224 147.23 6.608C147.08 6.98133 147.006 7.456 147.006 8.032C147.006 8.59733 147.086 9.06667 147.246 9.44C147.416 9.80267 147.651 10.0747 147.95 10.256C148.259 10.4373 148.627 10.528 149.054 10.528C149.523 10.528 149.902 10.4373 150.19 10.256C150.478 10.0747 150.702 9.824 150.862 9.504L152.606 10.176C152.435 10.592 152.174 10.9493 151.822 11.248C151.48 11.5467 151.07 11.776 150.59 11.936C150.12 12.0853 149.614 12.16 149.07 12.16ZM158.575 3.84C159.29 3.84 159.893 3.94667 160.383 4.16C160.885 4.36267 161.285 4.64533 161.583 5.008C161.893 5.36 162.111 5.75467 162.239 6.192L160.191 6.928C160.085 6.448 159.903 6.08533 159.647 5.84C159.391 5.59467 159.045 5.472 158.607 5.472C158.202 5.472 157.855 5.568 157.567 5.76C157.279 5.94133 157.061 6.224 156.911 6.608C156.762 6.98133 156.687 7.45067 156.687 8.016C156.687 8.58133 156.762 9.05067 156.911 9.424C157.071 9.79733 157.295 10.0747 157.583 10.256C157.882 10.4373 158.229 10.528 158.623 10.528C158.943 10.528 159.215 10.4747 159.439 10.368C159.663 10.2507 159.845 10.0853 159.983 9.872C160.133 9.65867 160.234 9.40267 160.287 9.104L162.271 9.744C162.154 10.224 161.935 10.6453 161.615 11.008C161.295 11.3707 160.885 11.6533 160.383 11.856C159.882 12.0587 159.301 12.16 158.639 12.16C157.818 12.16 157.093 11.9947 156.463 11.664C155.834 11.3333 155.349 10.8587 155.007 10.24C154.666 9.62133 154.495 8.87467 154.495 8C154.495 7.12533 154.666 6.37867 155.007 5.76C155.349 5.14133 155.829 4.66667 156.447 4.336C157.066 4.00533 157.775 3.84 158.575 3.84ZM167.127 1.552V9.392C167.127 9.776 167.223 10.0587 167.415 10.24C167.617 10.4107 167.889 10.496 168.231 10.496C168.497 10.496 168.732 10.4587 168.935 10.384C169.137 10.2987 169.319 10.1867 169.479 10.048L169.831 11.504C169.575 11.7067 169.255 11.8667 168.871 11.984C168.487 12.1013 168.081 12.16 167.655 12.16C167.121 12.16 166.647 12.08 166.231 11.92C165.825 11.76 165.505 11.504 165.271 11.152C165.047 10.8 164.935 10.3307 164.935 9.744V2.16L167.127 1.552ZM169.687 4V5.632H163.463V4H169.687Z" fill="black"/>
</svg>
