<svg width="106" height="28" viewBox="0 0 106 28" fill="none" xmlns="http://www.w3.org/2000/svg">
<g clip-path="url(#clip0_101_47)">
<path d="M23.3334 2.33333H4.66671C3.37754 2.33333 2.34504 3.37749 2.34504 4.66666L2.33337 25.6667L7.00004 21H23.3334C24.6225 21 25.6667 19.9558 25.6667 18.6667V4.66666C25.6667 3.37749 24.6225 2.33333 23.3334 2.33333ZM15.1667 16.3333H12.8334V14H15.1667V16.3333ZM15.1667 11.6667H12.8334V7H15.1667V11.6667Z" fill="#C4C4C4"/>
</g>
<path d="M46.12 10.814H41.136V13.166H45.07V14.72H41.136V18.5H39.204V9.26H46.12V10.814ZM50.3973 18.64C49.66 18.64 49.016 18.4953 48.4653 18.206C47.924 17.9167 47.504 17.5013 47.2053 16.96C46.9067 16.4187 46.7573 15.7653 46.7573 15C46.7573 14.2347 46.9067 13.5813 47.2053 13.04C47.504 12.4987 47.9193 12.0833 48.4513 11.794C48.9927 11.5047 49.6087 11.36 50.2993 11.36C51.0087 11.36 51.6107 11.5047 52.1053 11.794C52.6 12.074 52.978 12.4613 53.2393 12.956C53.5007 13.4413 53.6313 13.9967 53.6313 14.622C53.6313 14.8087 53.6267 14.986 53.6173 15.154C53.608 15.322 53.594 15.4713 53.5753 15.602H47.9893V14.272H52.7353L51.8113 14.608C51.8113 14.02 51.676 13.5673 51.4053 13.25C51.144 12.9327 50.7707 12.774 50.2853 12.774C49.9307 12.774 49.6227 12.858 49.3613 13.026C49.1093 13.194 48.918 13.446 48.7873 13.782C48.6567 14.1087 48.5913 14.524 48.5913 15.028C48.5913 15.5227 48.6613 15.9333 48.8013 16.26C48.9507 16.5773 49.156 16.8153 49.4173 16.974C49.688 17.1327 50.01 17.212 50.3833 17.212C50.794 17.212 51.1253 17.1327 51.3773 16.974C51.6293 16.8153 51.8253 16.596 51.9653 16.316L53.4913 16.904C53.342 17.268 53.1133 17.5807 52.8053 17.842C52.5067 18.1033 52.1473 18.304 51.7273 18.444C51.3167 18.5747 50.8733 18.64 50.3973 18.64ZM58.7847 18.64C58.0474 18.64 57.4034 18.4953 56.8527 18.206C56.3114 17.9167 55.8914 17.5013 55.5927 16.96C55.2941 16.4187 55.1447 15.7653 55.1447 15C55.1447 14.2347 55.2941 13.5813 55.5927 13.04C55.8914 12.4987 56.3067 12.0833 56.8387 11.794C57.3801 11.5047 57.9961 11.36 58.6867 11.36C59.3961 11.36 59.9981 11.5047 60.4927 11.794C60.9874 12.074 61.3654 12.4613 61.6267 12.956C61.8881 13.4413 62.0187 13.9967 62.0187 14.622C62.0187 14.8087 62.0141 14.986 62.0048 15.154C61.9954 15.322 61.9814 15.4713 61.9627 15.602H56.3767V14.272H61.1227L60.1987 14.608C60.1987 14.02 60.0634 13.5673 59.7927 13.25C59.5314 12.9327 59.1581 12.774 58.6727 12.774C58.3181 12.774 58.0101 12.858 57.7487 13.026C57.4967 13.194 57.3054 13.446 57.1747 13.782C57.0441 14.1087 56.9787 14.524 56.9787 15.028C56.9787 15.5227 57.0487 15.9333 57.1887 16.26C57.3381 16.5773 57.5434 16.8153 57.8047 16.974C58.0754 17.1327 58.3974 17.212 58.7707 17.212C59.1814 17.212 59.5127 17.1327 59.7647 16.974C60.0167 16.8153 60.2127 16.596 60.3527 16.316L61.8787 16.904C61.7294 17.268 61.5007 17.5807 61.1927 17.842C60.8941 18.1033 60.5347 18.304 60.1147 18.444C59.7041 18.5747 59.2607 18.64 58.7847 18.64ZM66.5702 18.64C65.9915 18.64 65.4735 18.4953 65.0162 18.206C64.5682 17.9167 64.2135 17.5013 63.9522 16.96C63.7002 16.4187 63.5742 15.77 63.5742 15.014C63.5742 14.2393 63.7095 13.5813 63.9802 13.04C64.2508 12.4893 64.6148 12.074 65.0722 11.794C65.5388 11.5047 66.0615 11.36 66.6402 11.36C67.2562 11.36 67.7648 11.5373 68.1662 11.892C68.5675 12.2467 68.8288 12.704 68.9502 13.264L68.7682 13.488V8.434H70.6862V18.5H68.9642L68.8382 16.372L69.0762 16.484C69.0108 16.9227 68.8615 17.3053 68.6282 17.632C68.3948 17.9493 68.1008 18.1967 67.7462 18.374C67.3915 18.5513 66.9995 18.64 66.5702 18.64ZM67.1302 17.17C67.4662 17.17 67.7555 17.086 67.9982 16.918C68.2408 16.7407 68.4275 16.484 68.5582 16.148C68.6982 15.812 68.7682 15.4107 68.7682 14.944C68.7682 14.496 68.7028 14.118 68.5722 13.81C68.4415 13.4927 68.2548 13.25 68.0122 13.082C67.7695 12.914 67.4848 12.83 67.1582 12.83C66.6355 12.83 66.2248 13.0167 65.9262 13.39C65.6368 13.754 65.4922 14.2907 65.4922 15C65.4922 15.7093 65.6368 16.2507 65.9262 16.624C66.2155 16.988 66.6168 17.17 67.1302 17.17ZM77.0975 18.64C76.6682 18.64 76.2762 18.5513 75.9215 18.374C75.5762 18.1873 75.2868 17.9353 75.0535 17.618C74.8295 17.2913 74.6755 16.9273 74.5915 16.526L74.7875 16.274L74.6755 18.5H72.9815V8.434H74.8995V13.474L74.7175 13.18C74.8668 12.6573 75.1515 12.2233 75.5715 11.878C75.9915 11.5327 76.5188 11.36 77.1535 11.36C77.7042 11.36 78.2035 11.5047 78.6515 11.794C79.0995 12.0833 79.4495 12.4987 79.7015 13.04C79.9628 13.5813 80.0935 14.2393 80.0935 15.014C80.0935 15.77 79.9628 16.4187 79.7015 16.96C79.4495 17.5013 79.0948 17.9167 78.6375 18.206C78.1895 18.4953 77.6762 18.64 77.0975 18.64ZM76.5235 17.17C77.0368 17.17 77.4382 16.988 77.7275 16.624C78.0262 16.2507 78.1755 15.7093 78.1755 15C78.1755 14.2907 78.0308 13.754 77.7415 13.39C77.4522 13.0167 77.0508 12.83 76.5375 12.83C76.2015 12.83 75.9122 12.9187 75.6695 13.096C75.4268 13.2733 75.2355 13.5253 75.0955 13.852C74.9648 14.1787 74.8995 14.566 74.8995 15.014C74.8995 15.4713 74.9648 15.8633 75.0955 16.19C75.2355 16.5073 75.4268 16.75 75.6695 16.918C75.9215 17.086 76.2062 17.17 76.5235 17.17ZM85.9878 14.034C85.9878 13.6327 85.8712 13.32 85.6378 13.096C85.4138 12.872 85.1152 12.76 84.7418 12.76C84.3965 12.76 84.0932 12.8487 83.8318 13.026C83.5705 13.2033 83.3792 13.4973 83.2578 13.908L81.6198 13.404C81.7785 12.788 82.1238 12.2933 82.6558 11.92C83.1972 11.5467 83.9205 11.36 84.8258 11.36C85.4418 11.36 85.9785 11.458 86.4358 11.654C86.8932 11.8407 87.2478 12.1253 87.4998 12.508C87.7612 12.8907 87.8918 13.3713 87.8918 13.95V16.792C87.8918 17.1467 88.0598 17.324 88.3958 17.324C88.5545 17.324 88.7038 17.3007 88.8438 17.254L88.7318 18.444C88.4892 18.5653 88.1858 18.626 87.8218 18.626C87.4952 18.626 87.2012 18.57 86.9398 18.458C86.6785 18.346 86.4732 18.178 86.3238 17.954C86.1745 17.7207 86.0998 17.4313 86.0998 17.086V17.03L86.4358 16.974C86.3798 17.3287 86.2258 17.632 85.9738 17.884C85.7218 18.1267 85.4138 18.3133 85.0498 18.444C84.6952 18.5747 84.3265 18.64 83.9438 18.64C83.4678 18.64 83.0572 18.57 82.7118 18.43C82.3665 18.2807 82.1005 18.066 81.9138 17.786C81.7272 17.506 81.6338 17.1607 81.6338 16.75C81.6338 16.2273 81.8018 15.8027 82.1378 15.476C82.4738 15.14 82.9545 14.9113 83.5798 14.79L86.2118 14.258L86.1978 15.448L84.5178 15.784C84.2005 15.8493 83.9578 15.938 83.7898 16.05C83.6312 16.1527 83.5518 16.3253 83.5518 16.568C83.5518 16.8013 83.6358 16.9787 83.8038 17.1C83.9812 17.2213 84.1912 17.282 84.4338 17.282C84.6298 17.282 84.8212 17.2587 85.0078 17.212C85.1945 17.1653 85.3625 17.0907 85.5118 16.988C85.6612 16.8853 85.7778 16.7453 85.8618 16.568C85.9458 16.3907 85.9878 16.176 85.9878 15.924V14.034ZM93.4676 11.36C94.0929 11.36 94.6202 11.4533 95.0496 11.64C95.4882 11.8173 95.8382 12.0647 96.0996 12.382C96.3702 12.69 96.5616 13.0353 96.6736 13.418L94.8816 14.062C94.7882 13.642 94.6296 13.3247 94.4056 13.11C94.1816 12.8953 93.8782 12.788 93.4956 12.788C93.1409 12.788 92.8376 12.872 92.5856 13.04C92.3336 13.1987 92.1422 13.446 92.0116 13.782C91.8809 14.1087 91.8156 14.5193 91.8156 15.014C91.8156 15.5087 91.8809 15.9193 92.0116 16.246C92.1516 16.5727 92.3476 16.8153 92.5996 16.974C92.8609 17.1327 93.1642 17.212 93.5096 17.212C93.7896 17.212 94.0276 17.1653 94.2236 17.072C94.4196 16.9693 94.5782 16.8247 94.6996 16.638C94.8302 16.4513 94.9189 16.2273 94.9656 15.966L96.7016 16.526C96.5989 16.946 96.4076 17.3147 96.1276 17.632C95.8476 17.9493 95.4882 18.1967 95.0496 18.374C94.6109 18.5513 94.1022 18.64 93.5236 18.64C92.8049 18.64 92.1702 18.4953 91.6196 18.206C91.0689 17.9167 90.6442 17.5013 90.3456 16.96C90.0469 16.4187 89.8976 15.7653 89.8976 15C89.8976 14.2347 90.0469 13.5813 90.3456 13.04C90.6442 12.4987 91.0642 12.0833 91.6056 11.794C92.1469 11.5047 92.7676 11.36 93.4676 11.36ZM105.598 11.5L102.364 14.874L101.986 15.056L99.8859 17.31L99.8579 15.266L103.414 11.5H105.598ZM100.39 8.434V18.5H98.4719V8.434H100.39ZM102.63 13.726L105.766 18.5H103.596L101.314 14.846L102.63 13.726Z" fill="#C4C4C4"/>
<defs>
<clipPath id="clip0_101_47">
<rect width="28" height="28" fill="white"/>
</clipPath>
</defs>
</svg>
