<svg width="143" height="27" viewBox="0 0 143 27" fill="none" xmlns="http://www.w3.org/2000/svg">
<g clip-path="url(#clip0_101_34)">
<path d="M11.5323 1.96774C9.2514 1.96774 7.02175 2.6441 5.12528 3.91128C3.22881 5.17846 1.7507 6.97955 0.877846 9.0868C0.00499677 11.194 -0.22338 13.5128 0.221594 15.7498C0.666569 17.9869 1.76491 20.0417 3.37773 21.6545C4.99054 23.2674 7.04539 24.3657 9.28243 24.8107C11.5195 25.2556 13.8382 25.0273 15.9455 24.1544C18.0527 23.2816 19.8538 21.8034 21.121 19.907C22.3882 18.0105 23.0645 15.7809 23.0645 13.5C23.0611 10.4425 21.845 7.5112 19.683 5.34922C17.5211 3.18724 14.5898 1.97115 11.5323 1.96774V1.96774ZM14.9117 14.1303L12.0644 16.118L10.5706 17.1607C10.4554 17.2412 10.3203 17.2885 10.18 17.2975C10.0397 17.3065 9.89967 17.277 9.77504 17.212C9.65042 17.147 9.54599 17.049 9.47312 16.9289C9.40026 16.8087 9.36174 16.6708 9.36175 16.5302V10.4698C9.36174 10.3292 9.40026 10.1913 9.47312 10.0712C9.54599 9.95096 9.65042 9.85304 9.77504 9.78804C9.89967 9.72304 10.0397 9.69345 10.18 9.70249C10.3203 9.71153 10.4554 9.75885 10.5706 9.8393L12.0644 10.882L14.9117 12.8695C15.0132 12.9404 15.0961 13.0347 15.1533 13.1444C15.2106 13.2542 15.2405 13.3761 15.2405 13.4999C15.2405 13.6237 15.2106 13.7456 15.1533 13.8554C15.0961 13.9651 15.0132 14.0595 14.9117 14.1303Z" fill="#C4C4C4"/>
</g>
<path d="M40.0999 8.86645V18H38.1901V8.86645H40.0999ZM42.5167 18V11.0806H44.2188L44.3295 13.1565L44.0943 12.935C44.205 12.483 44.3803 12.1093 44.6202 11.8141C44.86 11.5189 45.1506 11.3021 45.492 11.1637C45.8426 11.0161 46.2254 10.9423 46.6406 10.9423C47.1203 10.9423 47.5447 11.0345 47.9138 11.219C48.292 11.4035 48.5873 11.6849 48.7994 12.0632C49.0209 12.4322 49.1316 12.8981 49.1316 13.4609V18H47.2357V14.0006C47.2357 13.4102 47.1203 13.0042 46.8897 12.7828C46.6591 12.5522 46.3592 12.4368 45.9902 12.4368C45.7319 12.4368 45.4782 12.5014 45.2291 12.6306C44.9892 12.7505 44.7908 12.9489 44.634 13.2256C44.4864 13.5024 44.4126 13.8715 44.4126 14.3327V18H42.5167ZM53.7569 8.96332V15.7443C53.7569 16.0764 53.84 16.3209 54.006 16.4777C54.1813 16.6254 54.4166 16.6992 54.7118 16.6992C54.9425 16.6992 55.1454 16.6669 55.3207 16.6023C55.496 16.5285 55.6528 16.4316 55.7912 16.3117L56.0957 17.571C55.8743 17.7463 55.5975 17.8847 55.2654 17.9862C54.9332 18.0876 54.5827 18.1384 54.2136 18.1384C53.7523 18.1384 53.3418 18.0692 52.982 17.9308C52.6314 17.7924 52.3546 17.571 52.1517 17.2665C51.9579 16.9621 51.861 16.5562 51.861 16.0487V9.48919L53.7569 8.96332ZM55.9711 11.0806V12.4922H50.5879V11.0806H55.9711ZM57.5306 18V11.0806H59.1774L59.3019 12.4368C59.4865 11.9571 59.754 11.5881 60.1046 11.3297C60.4644 11.0714 60.9118 10.9423 61.4469 10.9423C61.6038 10.9423 61.7468 10.9561 61.8759 10.9838C62.0051 11.0115 62.1112 11.0484 62.1942 11.0945L61.9728 12.6859C61.8806 12.649 61.7652 12.6214 61.6268 12.6029C61.4977 12.5845 61.327 12.5752 61.1148 12.5752C60.838 12.5752 60.5705 12.6444 60.3122 12.7828C60.0538 12.912 59.8417 13.1149 59.6756 13.3917C59.5095 13.6593 59.4265 14.0006 59.4265 14.4158V18H57.5306ZM66.6657 10.9423C67.3668 10.9423 67.9803 11.0853 68.5062 11.3713C69.0413 11.6573 69.4565 12.0678 69.7517 12.6029C70.0561 13.138 70.2084 13.7838 70.2084 14.5403C70.2084 15.2876 70.0561 15.9334 69.7517 16.4777C69.4565 17.0128 69.0413 17.4234 68.5062 17.7094C67.9803 17.9954 67.3668 18.1384 66.6657 18.1384C65.9737 18.1384 65.3602 17.9954 64.8251 17.7094C64.29 17.4234 63.8702 17.0128 63.5658 16.4777C63.2706 15.9334 63.1229 15.2876 63.1229 14.5403C63.1229 13.7838 63.2706 13.138 63.5658 12.6029C63.8702 12.0678 64.29 11.6573 64.8251 11.3713C65.3602 11.0853 65.9737 10.9423 66.6657 10.9423ZM66.6657 12.3538C66.3151 12.3538 66.0152 12.4368 65.7661 12.6029C65.5263 12.7597 65.3417 12.9996 65.2126 13.3225C65.0834 13.6454 65.0188 14.0514 65.0188 14.5403C65.0188 15.0293 65.0834 15.4352 65.2126 15.7581C65.3417 16.081 65.5263 16.3255 65.7661 16.4916C66.0152 16.6484 66.3151 16.7268 66.6657 16.7268C67.007 16.7268 67.2976 16.6484 67.5375 16.4916C67.7866 16.3255 67.9757 16.081 68.1049 15.7581C68.234 15.4352 68.2986 15.0293 68.2986 14.5403C68.2986 14.0514 68.234 13.6454 68.1049 13.3225C67.9757 12.9996 67.7866 12.7597 67.5375 12.6029C67.2976 12.4368 67.007 12.3538 66.6657 12.3538ZM78.8656 8.96332V15.7443C78.8656 16.0764 78.9486 16.3209 79.1147 16.4777C79.2899 16.6254 79.5252 16.6992 79.8204 16.6992C80.0511 16.6992 80.254 16.6669 80.4293 16.6023C80.6046 16.5285 80.7615 16.4316 80.8998 16.3117L81.2043 17.571C80.9829 17.7463 80.7061 17.8847 80.374 17.9862C80.0418 18.0876 79.6913 18.1384 79.3222 18.1384C78.8609 18.1384 78.4504 18.0692 78.0906 17.9308C77.74 17.7924 77.4632 17.571 77.2603 17.2665C77.0665 16.9621 76.9697 16.5562 76.9697 16.0487V9.48919L78.8656 8.96332ZM81.0797 11.0806V12.4922H75.6965V11.0806H81.0797ZM85.7944 10.9423C86.4956 10.9423 87.1091 11.0853 87.635 11.3713C88.1701 11.6573 88.5852 12.0678 88.8805 12.6029C89.1849 13.138 89.3371 13.7838 89.3371 14.5403C89.3371 15.2876 89.1849 15.9334 88.8805 16.4777C88.5852 17.0128 88.1701 17.4234 87.635 17.7094C87.1091 17.9954 86.4956 18.1384 85.7944 18.1384C85.1025 18.1384 84.489 17.9954 83.9539 17.7094C83.4188 17.4234 82.999 17.0128 82.6946 16.4777C82.3993 15.9334 82.2517 15.2876 82.2517 14.5403C82.2517 13.7838 82.3993 13.138 82.6946 12.6029C82.999 12.0678 83.4188 11.6573 83.9539 11.3713C84.489 11.0853 85.1025 10.9423 85.7944 10.9423ZM85.7944 12.3538C85.4438 12.3538 85.144 12.4368 84.8949 12.6029C84.655 12.7597 84.4705 12.9996 84.3414 13.3225C84.2122 13.6454 84.1476 14.0514 84.1476 14.5403C84.1476 15.0293 84.2122 15.4352 84.3414 15.7581C84.4705 16.081 84.655 16.3255 84.8949 16.4916C85.144 16.6484 85.4438 16.7268 85.7944 16.7268C86.1358 16.7268 86.4264 16.6484 86.6663 16.4916C86.9154 16.3255 87.1045 16.081 87.2336 15.7581C87.3628 15.4352 87.4274 15.0293 87.4274 14.5403C87.4274 14.0514 87.3628 13.6454 87.2336 13.3225C87.1045 12.9996 86.9154 12.7597 86.6663 12.6029C86.4264 12.4368 86.1358 12.3538 85.7944 12.3538ZM103.747 8.86645V18H101.561L98.3641 12.6306L97.5753 11.136H97.5614L97.6168 12.7136V18H95.9008V8.86645H98.0735L101.27 14.222L102.059 15.7305H102.087L102.031 14.1528V8.86645H103.747ZM109.357 18.1384C108.628 18.1384 107.992 17.9954 107.447 17.7094C106.912 17.4234 106.497 17.0128 106.202 16.4777C105.907 15.9426 105.759 15.2968 105.759 14.5403C105.759 13.7838 105.907 13.138 106.202 12.6029C106.497 12.0678 106.908 11.6573 107.434 11.3713C107.969 11.0853 108.578 10.9423 109.26 10.9423C109.961 10.9423 110.557 11.0853 111.046 11.3713C111.534 11.648 111.908 12.0309 112.166 12.5199C112.425 12.9996 112.554 13.5485 112.554 14.1667C112.554 14.3512 112.549 14.5265 112.54 14.6925C112.531 14.8586 112.517 15.0062 112.499 15.1354H106.977V13.8207H111.668L110.755 14.1528C110.755 13.5716 110.621 13.1242 110.354 12.8105C110.095 12.4968 109.726 12.34 109.246 12.34C108.896 12.34 108.591 12.423 108.333 12.5891C108.084 12.7551 107.895 13.0042 107.766 13.3364C107.637 13.6593 107.572 14.0698 107.572 14.568C107.572 15.057 107.641 15.4629 107.78 15.7858C107.927 16.0995 108.13 16.3347 108.388 16.4916C108.656 16.6484 108.974 16.7268 109.343 16.7268C109.749 16.7268 110.077 16.6484 110.326 16.4916C110.575 16.3347 110.769 16.1179 110.907 15.8412L112.416 16.4224C112.268 16.7822 112.042 17.0913 111.737 17.3496C111.442 17.6079 111.087 17.8063 110.672 17.9446C110.266 18.0738 109.828 18.1384 109.357 18.1384ZM117.579 10.9423C118.197 10.9423 118.718 11.0345 119.143 11.219C119.576 11.3943 119.922 11.6388 120.18 11.9525C120.448 12.2569 120.637 12.5983 120.748 12.9765L118.977 13.6131C118.884 13.198 118.727 12.8843 118.506 12.6721C118.285 12.4599 117.985 12.3538 117.606 12.3538C117.256 12.3538 116.956 12.4368 116.707 12.6029C116.458 12.7597 116.269 13.0042 116.14 13.3364C116.01 13.6593 115.946 14.0652 115.946 14.5542C115.946 15.0431 116.01 15.4491 116.14 15.772C116.278 16.0949 116.472 16.3347 116.721 16.4916C116.979 16.6484 117.279 16.7268 117.62 16.7268C117.897 16.7268 118.132 16.6807 118.326 16.5885C118.52 16.487 118.677 16.344 118.797 16.1595C118.926 15.9749 119.013 15.7535 119.06 15.4952L120.776 16.0487C120.674 16.4639 120.485 16.8283 120.208 17.142C119.931 17.4557 119.576 17.7002 119.143 17.8755C118.709 18.0507 118.206 18.1384 117.634 18.1384C116.924 18.1384 116.296 17.9954 115.752 17.7094C115.208 17.4234 114.788 17.0128 114.493 16.4777C114.198 15.9426 114.05 15.2968 114.05 14.5403C114.05 13.7838 114.198 13.138 114.493 12.6029C114.788 12.0678 115.203 11.6573 115.738 11.3713C116.273 11.0853 116.887 10.9423 117.579 10.9423ZM124.394 8.04997V15.8688C124.394 16.1917 124.449 16.4178 124.56 16.5469C124.67 16.6761 124.855 16.7407 125.113 16.7407C125.27 16.7407 125.399 16.7315 125.501 16.713C125.602 16.6853 125.731 16.6484 125.888 16.6023L125.722 17.8478C125.565 17.94 125.367 18.0092 125.127 18.0554C124.897 18.1107 124.666 18.1384 124.435 18.1384C123.762 18.1384 123.268 17.9769 122.954 17.654C122.65 17.3219 122.498 16.796 122.498 16.0764V8.04997H124.394ZM130.432 18.1384C129.703 18.1384 129.067 17.9954 128.522 17.7094C127.987 17.4234 127.572 17.0128 127.277 16.4777C126.982 15.9426 126.834 15.2968 126.834 14.5403C126.834 13.7838 126.982 13.138 127.277 12.6029C127.572 12.0678 127.983 11.6573 128.508 11.3713C129.044 11.0853 129.652 10.9423 130.335 10.9423C131.036 10.9423 131.631 11.0853 132.12 11.3713C132.609 11.648 132.983 12.0309 133.241 12.5199C133.5 12.9996 133.629 13.5485 133.629 14.1667C133.629 14.3512 133.624 14.5265 133.615 14.6925C133.606 14.8586 133.592 15.0062 133.573 15.1354H128.052V13.8207H132.743L131.83 14.1528C131.83 13.5716 131.696 13.1242 131.428 12.8105C131.17 12.4968 130.801 12.34 130.321 12.34C129.971 12.34 129.666 12.423 129.408 12.5891C129.159 12.7551 128.97 13.0042 128.841 13.3364C128.711 13.6593 128.647 14.0698 128.647 14.568C128.647 15.057 128.716 15.4629 128.854 15.7858C129.002 16.0995 129.205 16.3347 129.463 16.4916C129.731 16.6484 130.049 16.7268 130.418 16.7268C130.824 16.7268 131.152 16.6484 131.401 16.4916C131.65 16.3347 131.844 16.1179 131.982 15.8412L133.49 16.4224C133.343 16.7822 133.117 17.0913 132.812 17.3496C132.517 17.6079 132.162 17.8063 131.747 17.9446C131.341 18.0738 130.903 18.1384 130.432 18.1384ZM138.667 10.9423C139.369 10.9423 139.982 11.0853 140.508 11.3713C141.043 11.6573 141.458 12.0678 141.754 12.6029C142.058 13.138 142.21 13.7838 142.21 14.5403C142.21 15.2876 142.058 15.9334 141.754 16.4777C141.458 17.0128 141.043 17.4234 140.508 17.7094C139.982 17.9954 139.369 18.1384 138.667 18.1384C137.976 18.1384 137.362 17.9954 136.827 17.7094C136.292 17.4234 135.872 17.0128 135.568 16.4777C135.272 15.9334 135.125 15.2876 135.125 14.5403C135.125 13.7838 135.272 13.138 135.568 12.6029C135.872 12.0678 136.292 11.6573 136.827 11.3713C137.362 11.0853 137.976 10.9423 138.667 10.9423ZM138.667 12.3538C138.317 12.3538 138.017 12.4368 137.768 12.6029C137.528 12.7597 137.344 12.9996 137.214 13.3225C137.085 13.6454 137.021 14.0514 137.021 14.5403C137.021 15.0293 137.085 15.4352 137.214 15.7581C137.344 16.081 137.528 16.3255 137.768 16.4916C138.017 16.6484 138.317 16.7268 138.667 16.7268C139.009 16.7268 139.299 16.6484 139.539 16.4916C139.788 16.3255 139.978 16.081 140.107 15.7581C140.236 15.4352 140.3 15.0293 140.3 14.5403C140.3 14.0514 140.236 13.6454 140.107 13.3225C139.978 12.9996 139.788 12.7597 139.539 12.6029C139.299 12.4368 139.009 12.3538 138.667 12.3538Z" fill="#C4C4C4"/>
<defs>
<clipPath id="clip0_101_34">
<rect width="23.0645" height="23.0645" fill="white" transform="translate(0 1.96774)"/>
</clipPath>
</defs>
</svg>
