<svg width="100" height="28" viewBox="0 0 100 28" fill="none" xmlns="http://www.w3.org/2000/svg">
<path d="M9.54941 14.7L10.9473 15.9232C11.2383 16.1778 11.2678 16.62 11.0132 16.911C10.7586 17.2019 10.3164 17.2313 10.0254 16.9768L7.22542 14.5268C7.07351 14.394 6.98637 14.2019 6.98637 14C6.98637 13.7982 7.07351 13.6061 7.22542 13.4732L10.0254 11.0232C10.3164 10.7686 10.7586 10.7981 11.0132 11.0891C11.2678 11.38 11.2383 11.8222 10.9473 12.0768L9.54938 13.3H14.7C15.0866 13.3 15.4 13.6134 15.4 14C15.4 14.3867 15.0866 14.7 14.7 14.7H9.54941ZM25.2001 19.6C25.2001 21.1464 23.9465 22.4 22.4001 22.4H5.60005C4.05365 22.4 2.80005 21.1464 2.80005 19.6V8.40001C2.80005 6.85361 4.05365 5.60001 5.60005 5.60001H22.4001C23.9465 5.60001 25.2001 6.85361 25.2001 8.40001V19.6ZM16.8 21V7.00001H5.60005C4.82686 7.00001 4.20005 7.6268 4.20005 8.40001V19.6C4.20005 20.3732 4.82686 21 5.60005 21H16.8Z" fill="#212121"/>
<path d="M47.114 15.952C46.9367 16.5493 46.6567 17.0487 46.274 17.45C45.8913 17.8513 45.4387 18.15 44.916 18.346C44.3933 18.542 43.8193 18.64 43.194 18.64C42.2793 18.64 41.486 18.4487 40.814 18.066C40.1513 17.6833 39.638 17.1373 39.274 16.428C38.9193 15.7187 38.742 14.8693 38.742 13.88C38.742 12.8907 38.9193 12.0413 39.274 11.332C39.638 10.6227 40.1513 10.0767 40.814 9.694C41.486 9.31133 42.27 9.12 43.166 9.12C43.8007 9.12 44.3747 9.20867 44.888 9.386C45.4013 9.554 45.8353 9.81533 46.19 10.17C46.554 10.5247 46.82 10.9727 46.988 11.514L45.238 12.256C45.0793 11.696 44.8367 11.2993 44.51 11.066C44.1833 10.8233 43.7633 10.702 43.25 10.702C42.746 10.702 42.3027 10.8233 41.92 11.066C41.5467 11.3087 41.2573 11.668 41.052 12.144C40.8467 12.6107 40.744 13.1893 40.744 13.88C40.744 14.5613 40.8373 15.14 41.024 15.616C41.22 16.092 41.5047 16.4513 41.878 16.694C42.2513 16.9367 42.7087 17.058 43.25 17.058C43.754 17.058 44.188 16.9227 44.552 16.652C44.9253 16.3813 45.1867 15.9707 45.336 15.42L47.114 15.952ZM52.0366 11.36C52.746 11.36 53.3666 11.5047 53.8986 11.794C54.44 12.0833 54.86 12.4987 55.1586 13.04C55.4666 13.5813 55.6206 14.2347 55.6206 15C55.6206 15.756 55.4666 16.4093 55.1586 16.96C54.86 17.5013 54.44 17.9167 53.8986 18.206C53.3666 18.4953 52.746 18.64 52.0366 18.64C51.3366 18.64 50.716 18.4953 50.1746 18.206C49.6333 17.9167 49.2086 17.5013 48.9006 16.96C48.602 16.4093 48.4526 15.756 48.4526 15C48.4526 14.2347 48.602 13.5813 48.9006 13.04C49.2086 12.4987 49.6333 12.0833 50.1746 11.794C50.716 11.5047 51.3366 11.36 52.0366 11.36ZM52.0366 12.788C51.682 12.788 51.3786 12.872 51.1266 13.04C50.884 13.1987 50.6973 13.4413 50.5666 13.768C50.436 14.0947 50.3706 14.5053 50.3706 15C50.3706 15.4947 50.436 15.9053 50.5666 16.232C50.6973 16.5587 50.884 16.806 51.1266 16.974C51.3786 17.1327 51.682 17.212 52.0366 17.212C52.382 17.212 52.676 17.1327 52.9186 16.974C53.1706 16.806 53.362 16.5587 53.4926 16.232C53.6233 15.9053 53.6886 15.4947 53.6886 15C53.6886 14.5053 53.6233 14.0947 53.4926 13.768C53.362 13.4413 53.1706 13.1987 52.9186 13.04C52.676 12.872 52.382 12.788 52.0366 12.788ZM59.3955 8.434V16.344C59.3955 16.6707 59.4515 16.8993 59.5635 17.03C59.6755 17.1607 59.8622 17.226 60.1235 17.226C60.2822 17.226 60.4128 17.2167 60.5155 17.198C60.6182 17.17 60.7488 17.1327 60.9075 17.086L60.7395 18.346C60.5808 18.4393 60.3802 18.5093 60.1375 18.556C59.9042 18.612 59.6708 18.64 59.4375 18.64C58.7562 18.64 58.2568 18.4767 57.9395 18.15C57.6315 17.814 57.4775 17.282 57.4775 16.554V8.434H59.3955ZM64.1462 8.434V16.344C64.1462 16.6707 64.2022 16.8993 64.3142 17.03C64.4262 17.1607 64.6129 17.226 64.8742 17.226C65.0329 17.226 65.1635 17.2167 65.2662 17.198C65.3689 17.17 65.4995 17.1327 65.6582 17.086L65.4902 18.346C65.3315 18.4393 65.1309 18.5093 64.8882 18.556C64.6549 18.612 64.4215 18.64 64.1882 18.64C63.5069 18.64 63.0075 18.4767 62.6902 18.15C62.3822 17.814 62.2282 17.282 62.2282 16.554V8.434H64.1462ZM71.0653 14.034C71.0653 13.6327 70.9486 13.32 70.7153 13.096C70.4913 12.872 70.1926 12.76 69.8193 12.76C69.4739 12.76 69.1706 12.8487 68.9093 13.026C68.6479 13.2033 68.4566 13.4973 68.3353 13.908L66.6973 13.404C66.8559 12.788 67.2013 12.2933 67.7333 11.92C68.2746 11.5467 68.9979 11.36 69.9033 11.36C70.5193 11.36 71.0559 11.458 71.5133 11.654C71.9706 11.8407 72.3253 12.1253 72.5773 12.508C72.8386 12.8907 72.9693 13.3713 72.9693 13.95V16.792C72.9693 17.1467 73.1373 17.324 73.4733 17.324C73.6319 17.324 73.7813 17.3007 73.9213 17.254L73.8093 18.444C73.5666 18.5653 73.2633 18.626 72.8993 18.626C72.5726 18.626 72.2786 18.57 72.0173 18.458C71.7559 18.346 71.5506 18.178 71.4013 17.954C71.2519 17.7207 71.1773 17.4313 71.1773 17.086V17.03L71.5133 16.974C71.4573 17.3287 71.3033 17.632 71.0513 17.884C70.7993 18.1267 70.4913 18.3133 70.1273 18.444C69.7726 18.5747 69.4039 18.64 69.0213 18.64C68.5453 18.64 68.1346 18.57 67.7893 18.43C67.4439 18.2807 67.1779 18.066 66.9913 17.786C66.8046 17.506 66.7113 17.1607 66.7113 16.75C66.7113 16.2273 66.8793 15.8027 67.2153 15.476C67.5513 15.14 68.0319 14.9113 68.6573 14.79L71.2893 14.258L71.2753 15.448L69.5953 15.784C69.2779 15.8493 69.0353 15.938 68.8673 16.05C68.7086 16.1527 68.6293 16.3253 68.6293 16.568C68.6293 16.8013 68.7133 16.9787 68.8813 17.1C69.0586 17.2213 69.2686 17.282 69.5113 17.282C69.7073 17.282 69.8986 17.2587 70.0853 17.212C70.2719 17.1653 70.4399 17.0907 70.5893 16.988C70.7386 16.8853 70.8553 16.7453 70.9393 16.568C71.0233 16.3907 71.0653 16.176 71.0653 15.924V14.034ZM75.3943 21.44V11.5H77.1163L77.2423 13.726L77.0043 13.474C77.0883 13.0633 77.2423 12.6993 77.4663 12.382C77.6997 12.0647 77.9937 11.8173 78.3483 11.64C78.703 11.4533 79.0997 11.36 79.5383 11.36C80.1077 11.36 80.6163 11.5047 81.0643 11.794C81.5123 12.0833 81.8623 12.4987 82.1143 13.04C82.3757 13.572 82.5063 14.2207 82.5063 14.986C82.5063 15.7513 82.3757 16.4093 82.1143 16.96C81.853 17.5013 81.4937 17.9167 81.0363 18.206C80.5883 18.4953 80.075 18.64 79.4963 18.64C78.8803 18.64 78.367 18.4673 77.9563 18.122C77.555 17.7767 77.2797 17.3427 77.1303 16.82L77.3123 16.526V21.44H75.3943ZM78.9363 17.17C79.4497 17.17 79.851 16.988 80.1403 16.624C80.439 16.2507 80.5883 15.7093 80.5883 15C80.5883 14.2907 80.4437 13.754 80.1543 13.39C79.8743 13.0167 79.4777 12.83 78.9643 12.83C78.6377 12.83 78.3483 12.9187 78.0963 13.096C77.8537 13.264 77.6623 13.5113 77.5223 13.838C77.3823 14.1553 77.3123 14.5427 77.3123 15C77.3123 15.448 77.3777 15.8353 77.5083 16.162C77.639 16.4887 77.8257 16.7407 78.0683 16.918C78.3203 17.086 78.6097 17.17 78.9363 17.17ZM87.2517 18.64C86.5423 18.64 85.8937 18.514 85.3057 18.262C84.727 18.01 84.2557 17.6553 83.8917 17.198L84.9977 16.078C85.2217 16.414 85.5203 16.6893 85.8937 16.904C86.267 17.1187 86.7103 17.226 87.2237 17.226C87.5877 17.226 87.877 17.1747 88.0917 17.072C88.3157 16.96 88.4277 16.7873 88.4277 16.554C88.4277 16.4047 88.3763 16.2787 88.2737 16.176C88.171 16.064 87.9657 15.9753 87.6577 15.91L86.4257 15.658C85.6137 15.49 85.035 15.238 84.6897 14.902C84.3537 14.5567 84.1857 14.1133 84.1857 13.572C84.1857 13.1893 84.2977 12.83 84.5217 12.494C84.755 12.158 85.1003 11.8873 85.5577 11.682C86.015 11.4673 86.5843 11.36 87.2657 11.36C87.9657 11.36 88.5723 11.472 89.0857 11.696C89.6083 11.9107 90.019 12.2327 90.3177 12.662L89.1697 13.782C88.9643 13.4553 88.6937 13.208 88.3577 13.04C88.031 12.8627 87.6857 12.774 87.3217 12.774C87.0603 12.774 86.8363 12.802 86.6497 12.858C86.463 12.914 86.323 12.9933 86.2297 13.096C86.1363 13.1893 86.0897 13.3107 86.0897 13.46C86.0897 13.6093 86.155 13.74 86.2857 13.852C86.4163 13.9547 86.6543 14.0433 86.9997 14.118L88.4277 14.412C89.1183 14.552 89.613 14.79 89.9117 15.126C90.2103 15.4527 90.3597 15.8493 90.3597 16.316C90.3597 16.764 90.2383 17.1653 89.9957 17.52C89.7623 17.8653 89.4123 18.1407 88.9457 18.346C88.4883 18.542 87.9237 18.64 87.2517 18.64ZM95.3898 18.64C94.6525 18.64 94.0085 18.4953 93.4578 18.206C92.9165 17.9167 92.4965 17.5013 92.1978 16.96C91.8992 16.4187 91.7498 15.7653 91.7498 15C91.7498 14.2347 91.8992 13.5813 92.1978 13.04C92.4965 12.4987 92.9118 12.0833 93.4438 11.794C93.9852 11.5047 94.6012 11.36 95.2918 11.36C96.0012 11.36 96.6032 11.5047 97.0978 11.794C97.5925 12.074 97.9705 12.4613 98.2318 12.956C98.4932 13.4413 98.6238 13.9967 98.6238 14.622C98.6238 14.8087 98.6192 14.986 98.6098 15.154C98.6005 15.322 98.5865 15.4713 98.5678 15.602H92.9818V14.272H97.7278L96.8038 14.608C96.8038 14.02 96.6685 13.5673 96.3978 13.25C96.1365 12.9327 95.7632 12.774 95.2778 12.774C94.9232 12.774 94.6152 12.858 94.3538 13.026C94.1018 13.194 93.9105 13.446 93.7798 13.782C93.6492 14.1087 93.5838 14.524 93.5838 15.028C93.5838 15.5227 93.6538 15.9333 93.7938 16.26C93.9432 16.5773 94.1485 16.8153 94.4098 16.974C94.6805 17.1327 95.0025 17.212 95.3758 17.212C95.7865 17.212 96.1178 17.1327 96.3698 16.974C96.6218 16.8153 96.8178 16.596 96.9578 16.316L98.4838 16.904C98.3345 17.268 98.1058 17.5807 97.7978 17.842C97.4992 18.1033 97.1398 18.304 96.7198 18.444C96.3092 18.5747 95.8658 18.64 95.3898 18.64Z" fill="black"/>
</svg>
