<svg width="146" height="28" viewBox="0 0 146 28" fill="none" xmlns="http://www.w3.org/2000/svg">
<path d="M14 1.75C7.23516 1.75 1.75 7.23516 1.75 14C1.75 20.7648 7.23516 26.25 14 26.25C20.7648 26.25 26.25 20.7648 26.25 14C26.25 7.23516 20.7648 1.75 14 1.75ZM15.1047 19.6164C15.0773 20.5898 14.3555 21.1914 13.4203 21.1641C12.5234 21.1367 11.818 20.4969 11.8453 19.518C11.8727 18.5445 12.6164 17.9266 13.5133 17.9539C14.4539 17.9812 15.1375 18.643 15.1047 19.6164ZM17.768 12.6547C17.5383 12.9773 17.0242 13.393 16.3789 13.8961L15.6625 14.3883C15.3125 14.6562 15.0938 14.9734 14.9789 15.3344C14.9187 15.5258 14.875 16.0234 14.8641 16.357C14.8586 16.4227 14.8203 16.5703 14.618 16.5703C14.4156 16.5703 12.7039 16.5703 12.4797 16.5703C12.2555 16.5703 12.2281 16.4391 12.2336 16.3734C12.2664 15.4656 12.3977 14.7164 12.775 14.1148C13.2836 13.3055 14.7164 12.4523 14.7164 12.4523C14.9352 12.2883 15.1047 12.1133 15.2359 11.9219C15.4766 11.5938 15.6734 11.2273 15.6734 10.8336C15.6734 10.3797 15.5641 9.94766 15.2742 9.58672C14.9352 9.16563 14.5688 8.96328 13.8633 8.96328C13.1687 8.96328 12.7641 9.31328 12.4742 9.77266C12.1844 10.232 12.2336 10.7734 12.2336 11.2656H9.57031C9.57031 9.40625 10.057 8.21953 11.0852 7.51953C11.7797 7.04375 12.6656 6.83594 13.6992 6.83594C15.0555 6.83594 16.1328 7.0875 17.0844 7.80938C17.9648 8.47656 18.4297 9.41719 18.4297 10.6859C18.4297 11.468 18.1562 12.1242 17.768 12.6547Z" fill="#C4C4C4"/>
<path d="M47.142 9.26V18.5H45.21V9.26H47.142ZM41.136 9.26V18.5H39.204V9.26H41.136ZM46.218 13.054V14.608H40.17V13.054H46.218ZM52.8173 18.64C52.0799 18.64 51.4359 18.4953 50.8852 18.206C50.3439 17.9167 49.9239 17.5013 49.6252 16.96C49.3266 16.4187 49.1772 15.7653 49.1772 15C49.1772 14.2347 49.3266 13.5813 49.6252 13.04C49.9239 12.4987 50.3392 12.0833 50.8712 11.794C51.4126 11.5047 52.0286 11.36 52.7193 11.36C53.4286 11.36 54.0306 11.5047 54.5253 11.794C55.0199 12.074 55.3979 12.4613 55.6593 12.956C55.9206 13.4413 56.0513 13.9967 56.0513 14.622C56.0513 14.8087 56.0466 14.986 56.0373 15.154C56.0279 15.322 56.0139 15.4713 55.9952 15.602H50.4092V14.272H55.1552L54.2313 14.608C54.2313 14.02 54.0959 13.5673 53.8252 13.25C53.5639 12.9327 53.1906 12.774 52.7052 12.774C52.3506 12.774 52.0426 12.858 51.7812 13.026C51.5292 13.194 51.3379 13.446 51.2072 13.782C51.0766 14.1087 51.0112 14.524 51.0112 15.028C51.0112 15.5227 51.0812 15.9333 51.2212 16.26C51.3706 16.5773 51.5759 16.8153 51.8372 16.974C52.1079 17.1327 52.4299 17.212 52.8032 17.212C53.2139 17.212 53.5452 17.1327 53.7972 16.974C54.0493 16.8153 54.2452 16.596 54.3852 16.316L55.9113 16.904C55.7619 17.268 55.5332 17.5807 55.2252 17.842C54.9266 18.1033 54.5673 18.304 54.1472 18.444C53.7366 18.5747 53.2933 18.64 52.8173 18.64ZM59.8467 8.434V16.344C59.8467 16.6707 59.9027 16.8993 60.0147 17.03C60.1267 17.1607 60.3133 17.226 60.5747 17.226C60.7333 17.226 60.864 17.2167 60.9667 17.198C61.0693 17.17 61.2 17.1327 61.3587 17.086L61.1907 18.346C61.032 18.4393 60.8313 18.5093 60.5887 18.556C60.3553 18.612 60.122 18.64 59.8887 18.64C59.2073 18.64 58.708 18.4767 58.3907 18.15C58.0827 17.814 57.9287 17.282 57.9287 16.554V8.434H59.8467ZM62.7074 21.44V11.5H64.4294L64.5554 13.726L64.3174 13.474C64.4014 13.0633 64.5554 12.6993 64.7794 12.382C65.0127 12.0647 65.3067 11.8173 65.6614 11.64C66.016 11.4533 66.4127 11.36 66.8514 11.36C67.4207 11.36 67.9294 11.5047 68.3774 11.794C68.8254 12.0833 69.1754 12.4987 69.4274 13.04C69.6887 13.572 69.8194 14.2207 69.8194 14.986C69.8194 15.7513 69.6887 16.4093 69.4274 16.96C69.166 17.5013 68.8067 17.9167 68.3494 18.206C67.9014 18.4953 67.388 18.64 66.8094 18.64C66.1934 18.64 65.68 18.4673 65.2694 18.122C64.868 17.7767 64.5927 17.3427 64.4434 16.82L64.6254 16.526V21.44H62.7074ZM66.2494 17.17C66.7627 17.17 67.164 16.988 67.4534 16.624C67.752 16.2507 67.9014 15.7093 67.9014 15C67.9014 14.2907 67.7567 13.754 67.4674 13.39C67.1874 13.0167 66.7907 12.83 66.2774 12.83C65.9507 12.83 65.6614 12.9187 65.4094 13.096C65.1667 13.264 64.9754 13.5113 64.8354 13.838C64.6954 14.1553 64.6254 14.5427 64.6254 15C64.6254 15.448 64.6907 15.8353 64.8214 16.162C64.952 16.4887 65.1387 16.7407 65.3814 16.918C65.6334 17.086 65.9227 17.17 66.2494 17.17ZM78.928 18.64C78.2934 18.64 77.738 18.542 77.262 18.346C76.7954 18.1407 76.4314 17.8513 76.17 17.478C75.918 17.0953 75.792 16.638 75.792 16.106C75.792 15.8353 75.8294 15.5647 75.904 15.294C75.9787 15.0233 76.1094 14.7667 76.296 14.524C76.492 14.272 76.7534 14.0433 77.08 13.838C77.416 13.6327 77.8407 13.4693 78.354 13.348L78.844 13.152C79.2267 12.928 79.53 12.7273 79.754 12.55C79.978 12.3633 80.1367 12.1767 80.23 11.99C80.3327 11.794 80.384 11.5747 80.384 11.332C80.384 11.0613 80.3 10.8513 80.132 10.702C79.964 10.5433 79.74 10.464 79.46 10.464C79.1427 10.464 78.9 10.5573 78.732 10.744C78.5734 10.9213 78.494 11.1453 78.494 11.416C78.494 11.5747 78.5174 11.7287 78.564 11.878C78.62 12.0273 78.7227 12.214 78.872 12.438C79.0214 12.6527 79.2407 12.9373 79.53 13.292C79.8287 13.6467 80.2254 14.1087 80.72 14.678C81.2054 15.238 81.6114 15.6953 81.938 16.05C82.274 16.4047 82.5587 16.6753 82.792 16.862C83.0347 17.0393 83.2634 17.1607 83.478 17.226C83.702 17.282 83.9494 17.296 84.22 17.268L83.996 18.64C83.6507 18.64 83.338 18.6073 83.058 18.542C82.7874 18.486 82.5027 18.3647 82.204 18.178C81.9054 17.982 81.5554 17.6927 81.154 17.31C80.762 16.9273 80.2814 16.414 79.712 15.77C79.1147 15.1167 78.6247 14.5707 78.242 14.132C77.8687 13.6933 77.5794 13.32 77.374 13.012C77.1687 12.704 77.024 12.424 76.94 12.172C76.856 11.92 76.814 11.654 76.814 11.374C76.814 11.0007 76.9074 10.6413 77.094 10.296C77.2807 9.95067 77.57 9.67067 77.962 9.456C78.354 9.232 78.858 9.12 79.474 9.12C80.0247 9.12 80.4774 9.21333 80.832 9.4C81.196 9.58667 81.4667 9.834 81.644 10.142C81.8307 10.45 81.924 10.7953 81.924 11.178C81.924 11.5607 81.8447 11.92 81.686 12.256C81.5274 12.5827 81.2614 12.886 80.888 13.166C80.524 13.4367 80.0247 13.684 79.39 13.908L78.942 14.132C78.5594 14.328 78.2607 14.5147 78.046 14.692C77.8314 14.8693 77.682 15.0607 77.598 15.266C77.514 15.462 77.472 15.6953 77.472 15.966C77.472 16.2367 77.5467 16.4747 77.696 16.68C77.8454 16.8853 78.046 17.044 78.298 17.156C78.55 17.268 78.8394 17.324 79.166 17.324C79.6327 17.324 80.034 17.2447 80.37 17.086C80.706 16.9273 81.0234 16.7127 81.322 16.442L81.532 16.204C81.728 15.8773 81.882 15.5087 81.994 15.098C82.1154 14.6873 82.162 14.216 82.134 13.684L83.492 13.74C83.5107 14.3373 83.4267 14.9067 83.24 15.448C83.0627 15.9893 82.7874 16.4653 82.414 16.876L82.078 17.198C81.7514 17.6367 81.322 17.9867 80.79 18.248C80.2674 18.5093 79.6467 18.64 78.928 18.64ZM93.661 9.12C94.501 9.12 95.2384 9.26467 95.873 9.554C96.5077 9.84333 97.049 10.2727 97.497 10.842L96.419 12.088C96.0364 11.6027 95.6164 11.248 95.159 11.024C94.711 10.7907 94.1884 10.674 93.591 10.674C93.199 10.674 92.8724 10.7253 92.611 10.828C92.359 10.9307 92.1724 11.066 92.051 11.234C91.939 11.402 91.883 11.5887 91.883 11.794C91.883 12.046 91.981 12.2607 92.177 12.438C92.373 12.606 92.709 12.746 93.185 12.858L94.907 13.25C95.8217 13.4553 96.475 13.7633 96.867 14.174C97.2684 14.5753 97.469 15.098 97.469 15.742C97.469 16.3487 97.3104 16.8713 96.993 17.31C96.6757 17.7393 96.2324 18.0707 95.663 18.304C95.0937 18.528 94.4404 18.64 93.703 18.64C93.059 18.64 92.4664 18.5653 91.925 18.416C91.393 18.2573 90.917 18.0427 90.497 17.772C90.077 17.5013 89.727 17.1887 89.447 16.834L90.539 15.532C90.7537 15.8307 91.0197 16.0967 91.337 16.33C91.6544 16.5633 92.0137 16.75 92.415 16.89C92.8257 17.0207 93.255 17.086 93.703 17.086C94.0857 17.086 94.4077 17.044 94.669 16.96C94.9397 16.8667 95.1404 16.7407 95.271 16.582C95.411 16.414 95.481 16.2133 95.481 15.98C95.481 15.7373 95.397 15.532 95.229 15.364C95.0704 15.1867 94.7717 15.0513 94.333 14.958L92.457 14.538C91.9157 14.4073 91.449 14.2393 91.057 14.034C90.6744 13.8193 90.3804 13.5487 90.175 13.222C89.979 12.886 89.881 12.4893 89.881 12.032C89.881 11.4813 90.0304 10.9867 90.329 10.548C90.6277 10.1093 91.057 9.764 91.617 9.512C92.1864 9.25067 92.8677 9.12 93.661 9.12ZM101.776 18.64C101.309 18.64 100.889 18.556 100.516 18.388C100.142 18.22 99.8438 17.954 99.6198 17.59C99.4051 17.2167 99.2978 16.736 99.2978 16.148V11.5H101.216V15.686C101.216 16.2273 101.328 16.6053 101.552 16.82C101.776 17.0253 102.098 17.128 102.518 17.128C102.714 17.128 102.905 17.0953 103.092 17.03C103.278 16.9553 103.442 16.8433 103.582 16.694C103.731 16.5447 103.848 16.3533 103.932 16.12C104.016 15.8773 104.058 15.5927 104.058 15.266V11.5H105.976V18.5H104.268L104.198 17.282C103.964 17.7487 103.642 18.094 103.232 18.318C102.83 18.5327 102.345 18.64 101.776 18.64ZM108.274 21.44V11.5H109.996L110.122 13.726L109.884 13.474C109.968 13.0633 110.122 12.6993 110.346 12.382C110.579 12.0647 110.873 11.8173 111.228 11.64C111.583 11.4533 111.979 11.36 112.418 11.36C112.987 11.36 113.496 11.5047 113.944 11.794C114.392 12.0833 114.742 12.4987 114.994 13.04C115.255 13.572 115.386 14.2207 115.386 14.986C115.386 15.7513 115.255 16.4093 114.994 16.96C114.733 17.5013 114.373 17.9167 113.916 18.206C113.468 18.4953 112.955 18.64 112.376 18.64C111.76 18.64 111.247 18.4673 110.836 18.122C110.435 17.7767 110.159 17.3427 110.01 16.82L110.192 16.526V21.44H108.274ZM111.816 17.17C112.329 17.17 112.731 16.988 113.02 16.624C113.319 16.2507 113.468 15.7093 113.468 15C113.468 14.2907 113.323 13.754 113.034 13.39C112.754 13.0167 112.357 12.83 111.844 12.83C111.517 12.83 111.228 12.9187 110.976 13.096C110.733 13.264 110.542 13.5113 110.402 13.838C110.262 14.1553 110.192 14.5427 110.192 15C110.192 15.448 110.257 15.8353 110.388 16.162C110.519 16.4887 110.705 16.7407 110.948 16.918C111.2 17.086 111.489 17.17 111.816 17.17ZM117.331 21.44V11.5H119.053L119.179 13.726L118.941 13.474C119.025 13.0633 119.179 12.6993 119.403 12.382C119.637 12.0647 119.931 11.8173 120.285 11.64C120.64 11.4533 121.037 11.36 121.475 11.36C122.045 11.36 122.553 11.5047 123.001 11.794C123.449 12.0833 123.799 12.4987 124.051 13.04C124.313 13.572 124.443 14.2207 124.443 14.986C124.443 15.7513 124.313 16.4093 124.051 16.96C123.79 17.5013 123.431 17.9167 122.973 18.206C122.525 18.4953 122.012 18.64 121.433 18.64C120.817 18.64 120.304 18.4673 119.893 18.122C119.492 17.7767 119.217 17.3427 119.067 16.82L119.249 16.526V21.44H117.331ZM120.873 17.17C121.387 17.17 121.788 16.988 122.077 16.624C122.376 16.2507 122.525 15.7093 122.525 15C122.525 14.2907 122.381 13.754 122.091 13.39C121.811 13.0167 121.415 12.83 120.901 12.83C120.575 12.83 120.285 12.9187 120.033 13.096C119.791 13.264 119.599 13.5113 119.459 13.838C119.319 14.1553 119.249 14.5427 119.249 15C119.249 15.448 119.315 15.8353 119.445 16.162C119.576 16.4887 119.763 16.7407 120.005 16.918C120.257 17.086 120.547 17.17 120.873 17.17ZM129.581 11.36C130.29 11.36 130.911 11.5047 131.443 11.794C131.984 12.0833 132.404 12.4987 132.703 13.04C133.011 13.5813 133.165 14.2347 133.165 15C133.165 15.756 133.011 16.4093 132.703 16.96C132.404 17.5013 131.984 17.9167 131.443 18.206C130.911 18.4953 130.29 18.64 129.581 18.64C128.881 18.64 128.26 18.4953 127.719 18.206C127.177 17.9167 126.753 17.5013 126.445 16.96C126.146 16.4093 125.997 15.756 125.997 15C125.997 14.2347 126.146 13.5813 126.445 13.04C126.753 12.4987 127.177 12.0833 127.719 11.794C128.26 11.5047 128.881 11.36 129.581 11.36ZM129.581 12.788C129.226 12.788 128.923 12.872 128.671 13.04C128.428 13.1987 128.241 13.4413 128.111 13.768C127.98 14.0947 127.915 14.5053 127.915 15C127.915 15.4947 127.98 15.9053 128.111 16.232C128.241 16.5587 128.428 16.806 128.671 16.974C128.923 17.1327 129.226 17.212 129.581 17.212C129.926 17.212 130.22 17.1327 130.463 16.974C130.715 16.806 130.906 16.5587 131.037 16.232C131.167 15.9053 131.233 15.4947 131.233 15C131.233 14.5053 131.167 14.0947 131.037 13.768C130.906 13.4413 130.715 13.1987 130.463 13.04C130.22 12.872 129.926 12.788 129.581 12.788ZM135.05 18.5V11.5H136.716L136.842 12.872C137.028 12.3867 137.299 12.0133 137.654 11.752C138.018 11.4907 138.47 11.36 139.012 11.36C139.17 11.36 139.315 11.374 139.446 11.402C139.576 11.43 139.684 11.4673 139.768 11.514L139.544 13.124C139.45 13.0867 139.334 13.0587 139.194 13.04C139.063 13.0213 138.89 13.012 138.676 13.012C138.396 13.012 138.125 13.082 137.864 13.222C137.602 13.3527 137.388 13.558 137.22 13.838C137.052 14.1087 136.968 14.454 136.968 14.874V18.5H135.05ZM143.454 9.358V16.218C143.454 16.554 143.538 16.8013 143.706 16.96C143.883 17.1093 144.121 17.184 144.42 17.184C144.653 17.184 144.859 17.1513 145.036 17.086C145.213 17.0113 145.372 16.9133 145.512 16.792L145.82 18.066C145.596 18.2433 145.316 18.3833 144.98 18.486C144.644 18.5887 144.289 18.64 143.916 18.64C143.449 18.64 143.034 18.57 142.67 18.43C142.315 18.29 142.035 18.066 141.83 17.758C141.634 17.45 141.536 17.0393 141.536 16.526V9.89L143.454 9.358ZM145.694 11.5V12.928H140.248V11.5H145.694Z" fill="#C4C4C4"/>
</svg>
