<svg width="151" height="27" viewBox="0 0 151 27" fill="none" xmlns="http://www.w3.org/2000/svg">
<path d="M12.5902 6.41804C12.5902 3.70188 14.792 1.5 17.5082 1.5H23.8033C23.9119 1.5 24 1.58808 24 1.69672V7.9918C24 10.708 21.7981 12.9098 19.082 12.9098H12.5902V6.41804Z" fill="#C4C4C4"/>
<path d="M12.5902 20.582C12.5902 23.2981 14.792 25.5 17.5082 25.5H23.8033C23.9119 25.5 24 25.4119 24 25.3033V19.0082C24 16.292 21.7981 14.0902 19.082 14.0902H12.5902V20.582Z" fill="#C4C4C4"/>
<path d="M11.4098 6.41804C11.4098 3.70188 9.20796 1.5 6.4918 1.5H0.196722C0.0880756 1.5 0 1.58808 0 1.69672V7.9918C0 10.708 2.20188 12.9098 4.91803 12.9098H11.4098V6.41804Z" fill="#C4C4C4"/>
<path d="M11.4098 20.582C11.4098 23.2981 9.20796 25.5 6.4918 25.5H0.196722C0.0880756 25.5 0 25.4119 0 25.3033V19.0082C0 16.292 2.20188 14.0902 4.91803 14.0902H11.4098V20.582Z" fill="#C4C4C4"/>
<path d="M38.578 8.62C39.418 8.62 40.1553 8.76467 40.79 9.054C41.4247 9.34333 41.966 9.77267 42.414 10.342L41.336 11.588C40.9533 11.1027 40.5333 10.748 40.076 10.524C39.628 10.2907 39.1053 10.174 38.508 10.174C38.116 10.174 37.7893 10.2253 37.528 10.328C37.276 10.4307 37.0893 10.566 36.968 10.734C36.856 10.902 36.8 11.0887 36.8 11.294C36.8 11.546 36.898 11.7607 37.094 11.938C37.29 12.106 37.626 12.246 38.102 12.358L39.824 12.75C40.7387 12.9553 41.392 13.2633 41.784 13.674C42.1853 14.0753 42.386 14.598 42.386 15.242C42.386 15.8487 42.2273 16.3713 41.91 16.81C41.5927 17.2393 41.1493 17.5707 40.58 17.804C40.0107 18.028 39.3573 18.14 38.62 18.14C37.976 18.14 37.3833 18.0653 36.842 17.916C36.31 17.7573 35.834 17.5427 35.414 17.272C34.994 17.0013 34.644 16.6887 34.364 16.334L35.456 15.032C35.6707 15.3307 35.9367 15.5967 36.254 15.83C36.5713 16.0633 36.9307 16.25 37.332 16.39C37.7427 16.5207 38.172 16.586 38.62 16.586C39.0027 16.586 39.3247 16.544 39.586 16.46C39.8567 16.3667 40.0573 16.2407 40.188 16.082C40.328 15.914 40.398 15.7133 40.398 15.48C40.398 15.2373 40.314 15.032 40.146 14.864C39.9873 14.6867 39.6887 14.5513 39.25 14.458L37.374 14.038C36.8327 13.9073 36.366 13.7393 35.974 13.534C35.5913 13.3193 35.2973 13.0487 35.092 12.722C34.896 12.386 34.798 11.9893 34.798 11.532C34.798 10.9813 34.9473 10.4867 35.246 10.048C35.5447 9.60933 35.974 9.264 36.534 9.012C37.1033 8.75067 37.7847 8.62 38.578 8.62ZM48.2057 13.534C48.2057 13.1327 48.0891 12.82 47.8557 12.596C47.6317 12.372 47.3331 12.26 46.9597 12.26C46.6144 12.26 46.3111 12.3487 46.0497 12.526C45.7884 12.7033 45.5971 12.9973 45.4757 13.408L43.8377 12.904C43.9964 12.288 44.3417 11.7933 44.8737 11.42C45.4151 11.0467 46.1384 10.86 47.0437 10.86C47.6597 10.86 48.1964 10.958 48.6537 11.154C49.1111 11.3407 49.4657 11.6253 49.7177 12.008C49.9791 12.3907 50.1097 12.8713 50.1097 13.45V16.292C50.1097 16.6467 50.2777 16.824 50.6137 16.824C50.7724 16.824 50.9217 16.8007 51.0617 16.754L50.9497 17.944C50.7071 18.0653 50.4037 18.126 50.0397 18.126C49.7131 18.126 49.4191 18.07 49.1577 17.958C48.8964 17.846 48.6911 17.678 48.5417 17.454C48.3924 17.2207 48.3177 16.9313 48.3177 16.586V16.53L48.6537 16.474C48.5977 16.8287 48.4437 17.132 48.1917 17.384C47.9397 17.6267 47.6317 17.8133 47.2677 17.944C46.9131 18.0747 46.5444 18.14 46.1617 18.14C45.6857 18.14 45.2751 18.07 44.9297 17.93C44.5844 17.7807 44.3184 17.566 44.1317 17.286C43.9451 17.006 43.8517 16.6607 43.8517 16.25C43.8517 15.7273 44.0197 15.3027 44.3557 14.976C44.6917 14.64 45.1724 14.4113 45.7977 14.29L48.4297 13.758L48.4157 14.948L46.7357 15.284C46.4184 15.3493 46.1757 15.438 46.0077 15.55C45.8491 15.6527 45.7697 15.8253 45.7697 16.068C45.7697 16.3013 45.8537 16.4787 46.0217 16.6C46.1991 16.7213 46.4091 16.782 46.6517 16.782C46.8477 16.782 47.0391 16.7587 47.2257 16.712C47.4124 16.6653 47.5804 16.5907 47.7297 16.488C47.8791 16.3853 47.9957 16.2453 48.0797 16.068C48.1637 15.8907 48.2057 15.676 48.2057 15.424V13.534ZM52.5348 18V11H54.2568L54.3268 12.26C54.5601 11.7933 54.8775 11.4433 55.2788 11.21C55.6895 10.9767 56.1421 10.86 56.6368 10.86C57.1408 10.86 57.5935 10.9767 57.9948 11.21C58.4055 11.4433 58.7135 11.7887 58.9188 12.246C59.0681 11.938 59.2688 11.6813 59.5208 11.476C59.7728 11.2707 60.0528 11.1167 60.3608 11.014C60.6688 10.9113 60.9815 10.86 61.2988 10.86C61.7561 10.86 62.1715 10.9533 62.5448 11.14C62.9275 11.3267 63.2308 11.6067 63.4548 11.98C63.6788 12.3533 63.7908 12.8293 63.7908 13.408V18H61.8728V13.786C61.8728 13.2727 61.7608 12.9087 61.5368 12.694C61.3128 12.4793 61.0235 12.372 60.6688 12.372C60.3888 12.372 60.1275 12.442 59.8848 12.582C59.6515 12.722 59.4648 12.932 59.3248 13.212C59.1941 13.4827 59.1288 13.8233 59.1288 14.234V18H57.2108V13.786C57.2108 13.2727 57.0941 12.9087 56.8608 12.694C56.6368 12.4793 56.3475 12.372 55.9928 12.372C55.7501 12.372 55.5075 12.4373 55.2648 12.568C55.0315 12.6987 54.8355 12.904 54.6768 13.184C54.5275 13.464 54.4528 13.8327 54.4528 14.29V18H52.5348ZM66.0492 20.94V11H67.7712L67.8972 13.226L67.6592 12.974C67.7432 12.5633 67.8972 12.1993 68.1212 11.882C68.3545 11.5647 68.6485 11.3173 69.0032 11.14C69.3578 10.9533 69.7545 10.86 70.1932 10.86C70.7625 10.86 71.2712 11.0047 71.7192 11.294C72.1672 11.5833 72.5172 11.9987 72.7692 12.54C73.0305 13.072 73.1612 13.7207 73.1612 14.486C73.1612 15.2513 73.0305 15.9093 72.7692 16.46C72.5078 17.0013 72.1485 17.4167 71.6912 17.706C71.2432 17.9953 70.7298 18.14 70.1512 18.14C69.5352 18.14 69.0218 17.9673 68.6112 17.622C68.2098 17.2767 67.9345 16.8427 67.7852 16.32L67.9672 16.026V20.94H66.0492ZM69.5912 16.67C70.1045 16.67 70.5058 16.488 70.7952 16.124C71.0938 15.7507 71.2432 15.2093 71.2432 14.5C71.2432 13.7907 71.0985 13.254 70.8092 12.89C70.5292 12.5167 70.1325 12.33 69.6192 12.33C69.2925 12.33 69.0032 12.4187 68.7512 12.596C68.5085 12.764 68.3172 13.0113 68.1772 13.338C68.0372 13.6553 67.9672 14.0427 67.9672 14.5C67.9672 14.948 68.0325 15.3353 68.1632 15.662C68.2938 15.9887 68.4805 16.2407 68.7232 16.418C68.9752 16.586 69.2645 16.67 69.5912 16.67ZM76.9965 7.934V15.844C76.9965 16.1707 77.0525 16.3993 77.1645 16.53C77.2765 16.6607 77.4632 16.726 77.7245 16.726C77.8832 16.726 78.0138 16.7167 78.1165 16.698C78.2192 16.67 78.3498 16.6327 78.5085 16.586L78.3405 17.846C78.1818 17.9393 77.9812 18.0093 77.7385 18.056C77.5052 18.112 77.2718 18.14 77.0385 18.14C76.3572 18.14 75.8578 17.9767 75.5405 17.65C75.2325 17.314 75.0785 16.782 75.0785 16.054V7.934H76.9965ZM83.1052 18.14C82.3679 18.14 81.7239 17.9953 81.1732 17.706C80.6319 17.4167 80.2119 17.0013 79.9132 16.46C79.6146 15.9187 79.4652 15.2653 79.4652 14.5C79.4652 13.7347 79.6146 13.0813 79.9132 12.54C80.2119 11.9987 80.6272 11.5833 81.1592 11.294C81.7006 11.0047 82.3166 10.86 83.0072 10.86C83.7166 10.86 84.3186 11.0047 84.8132 11.294C85.3079 11.574 85.6859 11.9613 85.9472 12.456C86.2086 12.9413 86.3392 13.4967 86.3392 14.122C86.3392 14.3087 86.3346 14.486 86.3252 14.654C86.3159 14.822 86.3019 14.9713 86.2832 15.102H80.6972V13.772H85.4432L84.5192 14.108C84.5192 13.52 84.3839 13.0673 84.1132 12.75C83.8519 12.4327 83.4786 12.274 82.9932 12.274C82.6386 12.274 82.3306 12.358 82.0692 12.526C81.8172 12.694 81.6259 12.946 81.4952 13.282C81.3646 13.6087 81.2992 14.024 81.2992 14.528C81.2992 15.0227 81.3692 15.4333 81.5092 15.76C81.6586 16.0773 81.8639 16.3153 82.1252 16.474C82.3959 16.6327 82.7179 16.712 83.0912 16.712C83.5019 16.712 83.8332 16.6327 84.0852 16.474C84.3372 16.3153 84.5332 16.096 84.6732 15.816L86.1992 16.404C86.0499 16.768 85.8212 17.0807 85.5132 17.342C85.2146 17.6033 84.8552 17.804 84.4352 17.944C84.0246 18.0747 83.5812 18.14 83.1052 18.14ZM96.8779 8.76C97.5873 8.76 98.1939 8.88133 98.6979 9.124C99.2019 9.35733 99.5893 9.698 99.8599 10.146C100.14 10.5847 100.28 11.1167 100.28 11.742C100.28 12.3673 100.14 12.904 99.8599 13.352C99.5893 13.7907 99.2019 14.1313 98.6979 14.374C98.1939 14.6073 97.5873 14.724 96.8779 14.724H94.9319V18H92.9999V8.76H96.8779ZM96.5839 13.198C97.1626 13.198 97.5966 13.0767 97.8859 12.834C98.1753 12.582 98.3199 12.218 98.3199 11.742C98.3199 11.2567 98.1753 10.8927 97.8859 10.65C97.5966 10.4073 97.1626 10.286 96.5839 10.286H94.9319V13.198H96.5839ZM102.135 18V11H103.801L103.927 12.372C104.113 11.8867 104.384 11.5133 104.739 11.252C105.103 10.9907 105.555 10.86 106.097 10.86C106.255 10.86 106.4 10.874 106.531 10.902C106.661 10.93 106.769 10.9673 106.853 11.014L106.629 12.624C106.535 12.5867 106.419 12.5587 106.279 12.54C106.148 12.5213 105.975 12.512 105.761 12.512C105.481 12.512 105.21 12.582 104.949 12.722C104.687 12.8527 104.473 13.058 104.305 13.338C104.137 13.6087 104.053 13.954 104.053 14.374V18H102.135ZM111.376 10.86C112.086 10.86 112.706 11.0047 113.238 11.294C113.78 11.5833 114.2 11.9987 114.498 12.54C114.806 13.0813 114.96 13.7347 114.96 14.5C114.96 15.256 114.806 15.9093 114.498 16.46C114.2 17.0013 113.78 17.4167 113.238 17.706C112.706 17.9953 112.086 18.14 111.376 18.14C110.676 18.14 110.056 17.9953 109.514 17.706C108.973 17.4167 108.548 17.0013 108.24 16.46C107.942 15.9093 107.792 15.256 107.792 14.5C107.792 13.7347 107.942 13.0813 108.24 12.54C108.548 11.9987 108.973 11.5833 109.514 11.294C110.056 11.0047 110.676 10.86 111.376 10.86ZM111.376 12.288C111.022 12.288 110.718 12.372 110.466 12.54C110.224 12.6987 110.037 12.9413 109.906 13.268C109.776 13.5947 109.71 14.0053 109.71 14.5C109.71 14.9947 109.776 15.4053 109.906 15.732C110.037 16.0587 110.224 16.306 110.466 16.474C110.718 16.6327 111.022 16.712 111.376 16.712C111.722 16.712 112.016 16.6327 112.258 16.474C112.51 16.306 112.702 16.0587 112.832 15.732C112.963 15.4053 113.028 14.9947 113.028 14.5C113.028 14.0053 112.963 13.5947 112.832 13.268C112.702 12.9413 112.51 12.6987 112.258 12.54C112.016 12.372 111.722 12.288 111.376 12.288ZM117.811 9.992C117.41 9.992 117.111 9.908 116.915 9.74C116.719 9.56267 116.621 9.306 116.621 8.97C116.621 8.62467 116.719 8.368 116.915 8.2C117.111 8.02267 117.41 7.934 117.811 7.934C118.212 7.934 118.511 8.02267 118.707 8.2C118.903 8.368 119.001 8.62467 119.001 8.97C119.001 9.306 118.903 9.56267 118.707 9.74C118.511 9.908 118.212 9.992 117.811 9.992ZM118.763 11V18.518C118.763 19.1247 118.651 19.61 118.427 19.974C118.212 20.338 117.918 20.5993 117.545 20.758C117.172 20.926 116.747 21.01 116.271 21.01C115.926 21.01 115.613 20.968 115.333 20.884C115.053 20.8093 114.81 20.702 114.605 20.562L114.899 19.19C115.011 19.2833 115.151 19.3627 115.319 19.428C115.487 19.4933 115.674 19.526 115.879 19.526C116.168 19.526 116.402 19.4373 116.579 19.26C116.756 19.0827 116.845 18.7747 116.845 18.336V11H118.763ZM124.324 18.14C123.587 18.14 122.943 17.9953 122.392 17.706C121.851 17.4167 121.431 17.0013 121.132 16.46C120.834 15.9187 120.684 15.2653 120.684 14.5C120.684 13.7347 120.834 13.0813 121.132 12.54C121.431 11.9987 121.846 11.5833 122.378 11.294C122.92 11.0047 123.536 10.86 124.226 10.86C124.936 10.86 125.538 11.0047 126.032 11.294C126.527 11.574 126.905 11.9613 127.166 12.456C127.428 12.9413 127.558 13.4967 127.558 14.122C127.558 14.3087 127.554 14.486 127.544 14.654C127.535 14.822 127.521 14.9713 127.502 15.102H121.916V13.772H126.662L125.738 14.108C125.738 13.52 125.603 13.0673 125.332 12.75C125.071 12.4327 124.698 12.274 124.212 12.274C123.858 12.274 123.55 12.358 123.288 12.526C123.036 12.694 122.845 12.946 122.714 13.282C122.584 13.6087 122.518 14.024 122.518 14.528C122.518 15.0227 122.588 15.4333 122.728 15.76C122.878 16.0773 123.083 16.3153 123.344 16.474C123.615 16.6327 123.937 16.712 124.31 16.712C124.721 16.712 125.052 16.6327 125.304 16.474C125.556 16.3153 125.752 16.096 125.892 15.816L127.418 16.404C127.269 16.768 127.04 17.0807 126.732 17.342C126.434 17.6033 126.074 17.804 125.654 17.944C125.244 18.0747 124.8 18.14 124.324 18.14ZM132.642 10.86C133.267 10.86 133.794 10.9533 134.224 11.14C134.662 11.3173 135.012 11.5647 135.274 11.882C135.544 12.19 135.736 12.5353 135.848 12.918L134.056 13.562C133.962 13.142 133.804 12.8247 133.58 12.61C133.356 12.3953 133.052 12.288 132.67 12.288C132.315 12.288 132.012 12.372 131.76 12.54C131.508 12.6987 131.316 12.946 131.186 13.282C131.055 13.6087 130.99 14.0193 130.99 14.514C130.99 15.0087 131.055 15.4193 131.186 15.746C131.326 16.0727 131.522 16.3153 131.774 16.474C132.035 16.6327 132.338 16.712 132.684 16.712C132.964 16.712 133.202 16.6653 133.398 16.572C133.594 16.4693 133.752 16.3247 133.874 16.138C134.004 15.9513 134.093 15.7273 134.14 15.466L135.876 16.026C135.773 16.446 135.582 16.8147 135.302 17.132C135.022 17.4493 134.662 17.6967 134.224 17.874C133.785 18.0513 133.276 18.14 132.698 18.14C131.979 18.14 131.344 17.9953 130.794 17.706C130.243 17.4167 129.818 17.0013 129.52 16.46C129.221 15.9187 129.072 15.2653 129.072 14.5C129.072 13.7347 129.221 13.0813 129.52 12.54C129.818 11.9987 130.238 11.5833 130.78 11.294C131.321 11.0047 131.942 10.86 132.642 10.86ZM140.124 8.858V15.718C140.124 16.054 140.208 16.3013 140.376 16.46C140.553 16.6093 140.791 16.684 141.09 16.684C141.323 16.684 141.529 16.6513 141.706 16.586C141.883 16.5113 142.042 16.4133 142.182 16.292L142.49 17.566C142.266 17.7433 141.986 17.8833 141.65 17.986C141.314 18.0887 140.959 18.14 140.586 18.14C140.119 18.14 139.704 18.07 139.34 17.93C138.985 17.79 138.705 17.566 138.5 17.258C138.304 16.95 138.206 16.5393 138.206 16.026V9.39L140.124 8.858ZM142.364 11V12.428H136.918V11H142.364ZM146.742 18.14C146.032 18.14 145.384 18.014 144.796 17.762C144.217 17.51 143.746 17.1553 143.382 16.698L144.488 15.578C144.712 15.914 145.01 16.1893 145.384 16.404C145.757 16.6187 146.2 16.726 146.714 16.726C147.078 16.726 147.367 16.6747 147.582 16.572C147.806 16.46 147.918 16.2873 147.918 16.054C147.918 15.9047 147.866 15.7787 147.764 15.676C147.661 15.564 147.456 15.4753 147.148 15.41L145.916 15.158C145.104 14.99 144.525 14.738 144.18 14.402C143.844 14.0567 143.676 13.6133 143.676 13.072C143.676 12.6893 143.788 12.33 144.012 11.994C144.245 11.658 144.59 11.3873 145.048 11.182C145.505 10.9673 146.074 10.86 146.756 10.86C147.456 10.86 148.062 10.972 148.576 11.196C149.098 11.4107 149.509 11.7327 149.808 12.162L148.66 13.282C148.454 12.9553 148.184 12.708 147.848 12.54C147.521 12.3627 147.176 12.274 146.812 12.274C146.55 12.274 146.326 12.302 146.14 12.358C145.953 12.414 145.813 12.4933 145.72 12.596C145.626 12.6893 145.58 12.8107 145.58 12.96C145.58 13.1093 145.645 13.24 145.776 13.352C145.906 13.4547 146.144 13.5433 146.49 13.618L147.918 13.912C148.608 14.052 149.103 14.29 149.402 14.626C149.7 14.9527 149.85 15.3493 149.85 15.816C149.85 16.264 149.728 16.6653 149.486 17.02C149.252 17.3653 148.902 17.6407 148.436 17.846C147.978 18.042 147.414 18.14 146.742 18.14Z" fill="#C4C4C4"/>
</svg>
