<svg width="118" height="28" viewBox="0 0 118 28" fill="none" xmlns="http://www.w3.org/2000/svg">
<path d="M14 11.6666C18.6386 11.6666 23.3333 10.0636 23.3333 6.99998C23.3333 3.93631 18.6386 2.33331 14 2.33331C9.36129 2.33331 4.66663 3.93631 4.66663 6.99998C4.66663 10.0636 9.36129 11.6666 14 11.6666Z" fill="#FA782F"/>
<path d="M4.66663 11.6666C4.66663 14.7303 9.36129 16.3333 14 16.3333C18.6386 16.3333 23.3333 14.7303 23.3333 11.6666V9.33331C23.3333 12.397 18.6386 14 14 14C9.36129 14 4.66663 12.397 4.66663 9.33331V11.6666Z" fill="#FA782F"/>
<path d="M4.66663 16.3333C4.66663 19.397 9.36129 21 14 21C18.6386 21 23.3333 19.397 23.3333 16.3333V14C23.3333 17.0637 18.6386 18.6667 14 18.6667C9.36129 18.6667 4.66663 17.0637 4.66663 14V16.3333Z" fill="#FA782F"/>
<path d="M4.66663 21C4.66663 24.0637 9.36129 25.6667 14 25.6667C18.6386 25.6667 23.3333 24.0637 23.3333 21V18.6667C23.3333 21.7304 18.6386 23.3334 14 23.3334C9.36129 23.3334 4.66663 21.7304 4.66663 18.6667V21Z" fill="#FA782F"/>
<path d="M45.256 9.26V18.5H43.506V13.684L43.604 10.982H43.576L41.014 18.5H39.432L36.884 10.982H36.856L36.954 13.684V18.5H35.204V9.26H38.004L39.67 14.3L40.258 16.386H40.286L40.888 14.314L42.54 9.26H45.256ZM54.3231 11.5L51.4951 18.934C51.2711 19.5687 51.0191 20.0727 50.7391 20.446C50.4684 20.8193 50.1511 21.09 49.7871 21.258C49.4324 21.426 49.0077 21.51 48.5131 21.51C48.1491 21.51 47.8131 21.4633 47.5051 21.37C47.2064 21.286 46.9451 21.174 46.7211 21.034L47.1271 19.648C47.3044 19.788 47.4911 19.886 47.6871 19.942C47.8831 20.0073 48.1071 20.04 48.3591 20.04C48.6204 20.04 48.8444 19.984 49.0311 19.872C49.2271 19.76 49.3904 19.536 49.5211 19.2L49.7591 18.598L48.9891 16.778L46.8471 11.5H48.9751L50.3051 15.7L50.6691 17.1L51.1031 15.616L52.3771 11.5H54.3231ZM63.9708 9.26C64.6802 9.26 65.2868 9.38133 65.7908 9.624C66.2948 9.85733 66.6822 10.198 66.9528 10.646C67.2328 11.0847 67.3728 11.6167 67.3728 12.242C67.3728 12.8673 67.2328 13.404 66.9528 13.852C66.6822 14.2907 66.2948 14.6313 65.7908 14.874C65.2868 15.1073 64.6802 15.224 63.9708 15.224H62.0248V18.5H60.0928V9.26H63.9708ZM63.6768 13.698C64.2555 13.698 64.6895 13.5767 64.9788 13.334C65.2682 13.082 65.4128 12.718 65.4128 12.242C65.4128 11.7567 65.2682 11.3927 64.9788 11.15C64.6895 10.9073 64.2555 10.786 63.6768 10.786H62.0248V13.698H63.6768ZM69.2276 18.5V11.5H70.8936L71.0196 12.872C71.2063 12.3867 71.4769 12.0133 71.8316 11.752C72.1956 11.4907 72.6483 11.36 73.1896 11.36C73.3483 11.36 73.4929 11.374 73.6236 11.402C73.7543 11.43 73.8616 11.4673 73.9456 11.514L73.7216 13.124C73.6283 13.0867 73.5116 13.0587 73.3716 13.04C73.2409 13.0213 73.0683 13.012 72.8536 13.012C72.5736 13.012 72.3029 13.082 72.0416 13.222C71.7803 13.3527 71.5656 13.558 71.3976 13.838C71.2296 14.1087 71.1456 14.454 71.1456 14.874V18.5H69.2276ZM78.4691 11.36C79.1785 11.36 79.7991 11.5047 80.3311 11.794C80.8725 12.0833 81.2925 12.4987 81.5911 13.04C81.8991 13.5813 82.0531 14.2347 82.0531 15C82.0531 15.756 81.8991 16.4093 81.5911 16.96C81.2925 17.5013 80.8725 17.9167 80.3311 18.206C79.7991 18.4953 79.1785 18.64 78.4691 18.64C77.7691 18.64 77.1485 18.4953 76.6071 18.206C76.0658 17.9167 75.6411 17.5013 75.3331 16.96C75.0345 16.4093 74.8851 15.756 74.8851 15C74.8851 14.2347 75.0345 13.5813 75.3331 13.04C75.6411 12.4987 76.0658 12.0833 76.6071 11.794C77.1485 11.5047 77.7691 11.36 78.4691 11.36ZM78.4691 12.788C78.1145 12.788 77.8111 12.872 77.5591 13.04C77.3165 13.1987 77.1298 13.4413 76.9991 13.768C76.8685 14.0947 76.8031 14.5053 76.8031 15C76.8031 15.4947 76.8685 15.9053 76.9991 16.232C77.1298 16.5587 77.3165 16.806 77.5591 16.974C77.8111 17.1327 78.1145 17.212 78.4691 17.212C78.8145 17.212 79.1085 17.1327 79.3511 16.974C79.6031 16.806 79.7945 16.5587 79.9251 16.232C80.0558 15.9053 80.1211 15.4947 80.1211 15C80.1211 14.5053 80.0558 14.0947 79.9251 13.768C79.7945 13.4413 79.6031 13.1987 79.3511 13.04C79.1085 12.872 78.8145 12.788 78.4691 12.788ZM84.904 10.492C84.5027 10.492 84.204 10.408 84.008 10.24C83.812 10.0627 83.714 9.806 83.714 9.47C83.714 9.12467 83.812 8.868 84.008 8.7C84.204 8.52267 84.5027 8.434 84.904 8.434C85.3053 8.434 85.604 8.52267 85.8 8.7C85.996 8.868 86.094 9.12467 86.094 9.47C86.094 9.806 85.996 10.0627 85.8 10.24C85.604 10.408 85.3053 10.492 84.904 10.492ZM85.856 11.5V19.018C85.856 19.6247 85.744 20.11 85.52 20.474C85.3053 20.838 85.0113 21.0993 84.638 21.258C84.2647 21.426 83.84 21.51 83.364 21.51C83.0187 21.51 82.706 21.468 82.426 21.384C82.146 21.3093 81.9033 21.202 81.698 21.062L81.992 19.69C82.104 19.7833 82.244 19.8627 82.412 19.928C82.58 19.9933 82.7667 20.026 82.972 20.026C83.2613 20.026 83.4947 19.9373 83.672 19.76C83.8493 19.5827 83.938 19.2747 83.938 18.836V11.5H85.856ZM91.4172 18.64C90.6798 18.64 90.0358 18.4953 89.4852 18.206C88.9438 17.9167 88.5238 17.5013 88.2252 16.96C87.9265 16.4187 87.7772 15.7653 87.7772 15C87.7772 14.2347 87.9265 13.5813 88.2252 13.04C88.5238 12.4987 88.9392 12.0833 89.4712 11.794C90.0125 11.5047 90.6285 11.36 91.3192 11.36C92.0285 11.36 92.6305 11.5047 93.1252 11.794C93.6198 12.074 93.9978 12.4613 94.2592 12.956C94.5205 13.4413 94.6512 13.9967 94.6512 14.622C94.6512 14.8087 94.6465 14.986 94.6372 15.154C94.6278 15.322 94.6138 15.4713 94.5952 15.602H89.0092V14.272H93.7552L92.8312 14.608C92.8312 14.02 92.6958 13.5673 92.4252 13.25C92.1638 12.9327 91.7905 12.774 91.3052 12.774C90.9505 12.774 90.6425 12.858 90.3812 13.026C90.1292 13.194 89.9378 13.446 89.8072 13.782C89.6765 14.1087 89.6112 14.524 89.6112 15.028C89.6112 15.5227 89.6812 15.9333 89.8212 16.26C89.9705 16.5773 90.1758 16.8153 90.4372 16.974C90.7078 17.1327 91.0298 17.212 91.4032 17.212C91.8138 17.212 92.1452 17.1327 92.3972 16.974C92.6492 16.8153 92.8452 16.596 92.9852 16.316L94.5112 16.904C94.3618 17.268 94.1332 17.5807 93.8252 17.842C93.5265 18.1033 93.1672 18.304 92.7472 18.444C92.3365 18.5747 91.8932 18.64 91.4172 18.64ZM99.7346 11.36C100.36 11.36 100.887 11.4533 101.317 11.64C101.755 11.8173 102.105 12.0647 102.367 12.382C102.637 12.69 102.829 13.0353 102.941 13.418L101.149 14.062C101.055 13.642 100.897 13.3247 100.673 13.11C100.449 12.8953 100.145 12.788 99.7626 12.788C99.4079 12.788 99.1046 12.872 98.8526 13.04C98.6006 13.1987 98.4093 13.446 98.2786 13.782C98.1479 14.1087 98.0826 14.5193 98.0826 15.014C98.0826 15.5087 98.1479 15.9193 98.2786 16.246C98.4186 16.5727 98.6146 16.8153 98.8666 16.974C99.1279 17.1327 99.4313 17.212 99.7766 17.212C100.057 17.212 100.295 17.1653 100.491 17.072C100.687 16.9693 100.845 16.8247 100.967 16.638C101.097 16.4513 101.186 16.2273 101.233 15.966L102.969 16.526C102.866 16.946 102.675 17.3147 102.395 17.632C102.115 17.9493 101.755 18.1967 101.317 18.374C100.878 18.5513 100.369 18.64 99.7906 18.64C99.0719 18.64 98.4373 18.4953 97.8866 18.206C97.3359 17.9167 96.9113 17.5013 96.6126 16.96C96.3139 16.4187 96.1646 15.7653 96.1646 15C96.1646 14.2347 96.3139 13.5813 96.6126 13.04C96.9113 12.4987 97.3313 12.0833 97.8726 11.794C98.4139 11.5047 99.0346 11.36 99.7346 11.36ZM107.217 9.358V16.218C107.217 16.554 107.301 16.8013 107.469 16.96C107.646 17.1093 107.884 17.184 108.183 17.184C108.416 17.184 108.622 17.1513 108.799 17.086C108.976 17.0113 109.135 16.9133 109.275 16.792L109.583 18.066C109.359 18.2433 109.079 18.3833 108.743 18.486C108.407 18.5887 108.052 18.64 107.679 18.64C107.212 18.64 106.797 18.57 106.433 18.43C106.078 18.29 105.798 18.066 105.593 17.758C105.397 17.45 105.299 17.0393 105.299 16.526V9.89L107.217 9.358ZM109.457 11.5V12.928H104.011V11.5H109.457ZM113.835 18.64C113.125 18.64 112.477 18.514 111.889 18.262C111.31 18.01 110.839 17.6553 110.475 17.198L111.581 16.078C111.805 16.414 112.103 16.6893 112.477 16.904C112.85 17.1187 113.293 17.226 113.807 17.226C114.171 17.226 114.46 17.1747 114.675 17.072C114.899 16.96 115.011 16.7873 115.011 16.554C115.011 16.4047 114.959 16.2787 114.857 16.176C114.754 16.064 114.549 15.9753 114.241 15.91L113.009 15.658C112.197 15.49 111.618 15.238 111.273 14.902C110.937 14.5567 110.769 14.1133 110.769 13.572C110.769 13.1893 110.881 12.83 111.105 12.494C111.338 12.158 111.683 11.8873 112.141 11.682C112.598 11.4673 113.167 11.36 113.849 11.36C114.549 11.36 115.155 11.472 115.669 11.696C116.191 11.9107 116.602 12.2327 116.901 12.662L115.753 13.782C115.547 13.4553 115.277 13.208 114.941 13.04C114.614 12.8627 114.269 12.774 113.905 12.774C113.643 12.774 113.419 12.802 113.233 12.858C113.046 12.914 112.906 12.9933 112.813 13.096C112.719 13.1893 112.673 13.3107 112.673 13.46C112.673 13.6093 112.738 13.74 112.869 13.852C112.999 13.9547 113.237 14.0433 113.583 14.118L115.011 14.412C115.701 14.552 116.196 14.79 116.495 15.126C116.793 15.4527 116.943 15.8493 116.943 16.316C116.943 16.764 116.821 17.1653 116.579 17.52C116.345 17.8653 115.995 18.1407 115.529 18.346C115.071 18.542 114.507 18.64 113.835 18.64Z" fill="#FA782F"/>
</svg>
