<svg width="74" height="28" viewBox="0 0 74 28" fill="none" xmlns="http://www.w3.org/2000/svg">
<path d="M21.5744 2.71825L25.2828 6.42681C26.308 7.45194 26.308 9.114 25.2828 10.1391L22.2677 13.1537C23.5312 13.3432 24.5 14.4332 24.5 15.7496V21.8745C24.5 23.3242 23.3247 24.4995 21.875 24.4995H6.125C4.67525 24.4995 3.5 23.3242 3.5 21.8745V6.12453C3.5 4.67478 4.67525 3.49953 6.125 3.49953H12.25C13.567 3.49953 14.6576 4.46955 14.8462 5.73416L17.862 2.71825C18.8872 1.69312 20.5492 1.69312 21.5744 2.71825ZM5.25 21.8745C5.25 22.3578 5.64176 22.7495 6.125 22.7495L13.1238 22.7487L13.125 14.8746L5.25 14.8737V21.8745ZM14.8738 22.7487L21.875 22.7495C22.3582 22.7495 22.75 22.3578 22.75 21.8745V15.7496C22.75 15.2663 22.3582 14.8746 21.875 14.8746L14.8738 14.8737V22.7487ZM12.25 5.24953H6.125C5.64176 5.24953 5.25 5.64127 5.25 6.12453V13.1237H13.125V6.12453C13.125 5.64127 12.7332 5.24953 12.25 5.24953ZM14.875 10.8604V13.1246L17.1383 13.1237L14.875 10.8604ZM19.0994 3.95568L15.3909 7.66425C15.0492 8.00595 15.0492 8.55998 15.3909 8.90169L19.0994 12.6103C19.4411 12.952 19.9951 12.952 20.3369 12.6103L24.0455 8.90169C24.3872 8.55998 24.3872 8.00595 24.0455 7.66425L20.3369 3.95568C19.9951 3.61398 19.4411 3.61398 19.0994 3.95568Z" fill="#C4C4C4"/>
<path d="M19.0994 3.95568L15.3909 7.66425C15.0492 8.00595 15.0492 8.55998 15.3909 8.90169L19.0994 12.6103C19.4411 12.952 19.9951 12.952 20.3369 12.6103L24.0455 8.90169C24.3872 8.55998 24.3872 8.00595 24.0455 7.66425L20.3369 3.95568C19.9951 3.61398 19.4411 3.61398 19.0994 3.95568Z" fill="#C4C4C4"/>
<path d="M47.226 18.5H45.224L44.454 16.246H40.912L40.142 18.5H38.168L41.542 9.26H43.852L47.226 18.5ZM41.346 14.818H44.02L42.676 10.786L41.346 14.818ZM48.6806 21.44V11.5H50.4026L50.5286 13.726L50.2906 13.474C50.3746 13.0633 50.5286 12.6993 50.7526 12.382C50.9859 12.0647 51.2799 11.8173 51.6346 11.64C51.9892 11.4533 52.3859 11.36 52.8246 11.36C53.3939 11.36 53.9026 11.5047 54.3506 11.794C54.7986 12.0833 55.1486 12.4987 55.4006 13.04C55.6619 13.572 55.7926 14.2207 55.7926 14.986C55.7926 15.7513 55.6619 16.4093 55.4006 16.96C55.1392 17.5013 54.7799 17.9167 54.3226 18.206C53.8746 18.4953 53.3612 18.64 52.7826 18.64C52.1666 18.64 51.6532 18.4673 51.2426 18.122C50.8412 17.7767 50.5659 17.3427 50.4166 16.82L50.5986 16.526V21.44H48.6806ZM52.2226 17.17C52.7359 17.17 53.1372 16.988 53.4266 16.624C53.7252 16.2507 53.8746 15.7093 53.8746 15C53.8746 14.2907 53.7299 13.754 53.4406 13.39C53.1606 13.0167 52.7639 12.83 52.2506 12.83C51.9239 12.83 51.6346 12.9187 51.3826 13.096C51.1399 13.264 50.9486 13.5113 50.8086 13.838C50.6686 14.1553 50.5986 14.5427 50.5986 15C50.5986 15.448 50.6639 15.8353 50.7946 16.162C50.9252 16.4887 51.1119 16.7407 51.3546 16.918C51.6066 17.086 51.8959 17.17 52.2226 17.17ZM57.7379 21.44V11.5H59.4599L59.5859 13.726L59.3479 13.474C59.4319 13.0633 59.5859 12.6993 59.8099 12.382C60.0433 12.0647 60.3373 11.8173 60.6919 11.64C61.0466 11.4533 61.4433 11.36 61.8819 11.36C62.4513 11.36 62.9599 11.5047 63.4079 11.794C63.8559 12.0833 64.2059 12.4987 64.4579 13.04C64.7193 13.572 64.8499 14.2207 64.8499 14.986C64.8499 15.7513 64.7193 16.4093 64.4579 16.96C64.1966 17.5013 63.8373 17.9167 63.3799 18.206C62.9319 18.4953 62.4186 18.64 61.8399 18.64C61.2239 18.64 60.7106 18.4673 60.2999 18.122C59.8986 17.7767 59.6233 17.3427 59.4739 16.82L59.6559 16.526V21.44H57.7379ZM61.2799 17.17C61.7933 17.17 62.1946 16.988 62.4839 16.624C62.7826 16.2507 62.9319 15.7093 62.9319 15C62.9319 14.2907 62.7873 13.754 62.4979 13.39C62.2179 13.0167 61.8213 12.83 61.3079 12.83C60.9813 12.83 60.6919 12.9187 60.4399 13.096C60.1973 13.264 60.0059 13.5113 59.8659 13.838C59.7259 14.1553 59.6559 14.5427 59.6559 15C59.6559 15.448 59.7213 15.8353 59.8519 16.162C59.9826 16.4887 60.1693 16.7407 60.4119 16.918C60.6639 17.086 60.9533 17.17 61.2799 17.17ZM69.5953 18.64C68.8859 18.64 68.2373 18.514 67.6493 18.262C67.0706 18.01 66.5993 17.6553 66.2353 17.198L67.3413 16.078C67.5653 16.414 67.8639 16.6893 68.2373 16.904C68.6106 17.1187 69.0539 17.226 69.5673 17.226C69.9313 17.226 70.2206 17.1747 70.4353 17.072C70.6593 16.96 70.7713 16.7873 70.7713 16.554C70.7713 16.4047 70.7199 16.2787 70.6173 16.176C70.5146 16.064 70.3093 15.9753 70.0013 15.91L68.7693 15.658C67.9573 15.49 67.3786 15.238 67.0333 14.902C66.6973 14.5567 66.5293 14.1133 66.5293 13.572C66.5293 13.1893 66.6413 12.83 66.8653 12.494C67.0986 12.158 67.4439 11.8873 67.9013 11.682C68.3586 11.4673 68.9279 11.36 69.6093 11.36C70.3093 11.36 70.9159 11.472 71.4293 11.696C71.9519 11.9107 72.3626 12.2327 72.6613 12.662L71.5133 13.782C71.3079 13.4553 71.0373 13.208 70.7013 13.04C70.3746 12.8627 70.0293 12.774 69.6653 12.774C69.4039 12.774 69.1799 12.802 68.9933 12.858C68.8066 12.914 68.6666 12.9933 68.5733 13.096C68.4799 13.1893 68.4333 13.3107 68.4333 13.46C68.4333 13.6093 68.4986 13.74 68.6293 13.852C68.7599 13.9547 68.9979 14.0433 69.3433 14.118L70.7713 14.412C71.4619 14.552 71.9566 14.79 72.2553 15.126C72.5539 15.4527 72.7033 15.8493 72.7033 16.316C72.7033 16.764 72.5819 17.1653 72.3393 17.52C72.1059 17.8653 71.7559 18.1407 71.2893 18.346C70.8319 18.542 70.2673 18.64 69.5953 18.64Z" fill="#C4C4C4"/>
</svg>
