<svg width="140" height="12" viewBox="0 0 140 12" fill="none" xmlns="http://www.w3.org/2000/svg">
<path d="M3.6 2.88C4.208 2.88 4.74 3.004 5.196 3.252C5.66 3.5 6.02 3.856 6.276 4.32C6.54 4.784 6.672 5.344 6.672 6C6.672 6.648 6.54 7.208 6.276 7.68C6.02 8.144 5.66 8.5 5.196 8.748C4.74 8.996 4.208 9.12 3.6 9.12C3 9.12 2.468 8.996 2.004 8.748C1.54 8.5 1.176 8.144 0.912 7.68C0.656 7.208 0.528 6.648 0.528 6C0.528 5.344 0.656 4.784 0.912 4.32C1.176 3.856 1.54 3.5 2.004 3.252C2.468 3.004 3 2.88 3.6 2.88ZM3.6 4.104C3.296 4.104 3.036 4.176 2.82 4.32C2.612 4.456 2.452 4.664 2.34 4.944C2.228 5.224 2.172 5.576 2.172 6C2.172 6.424 2.228 6.776 2.34 7.056C2.452 7.336 2.612 7.548 2.82 7.692C3.036 7.828 3.296 7.896 3.6 7.896C3.896 7.896 4.148 7.828 4.356 7.692C4.572 7.548 4.736 7.336 4.848 7.056C4.96 6.776 5.016 6.424 5.016 6C5.016 5.576 4.96 5.224 4.848 4.944C4.736 4.664 4.572 4.456 4.356 4.32C4.148 4.176 3.896 4.104 3.6 4.104ZM8.28759 9V3H9.71559L9.82359 4.176C9.98359 3.76 10.2156 3.44 10.5196 3.216C10.8316 2.992 11.2196 2.88 11.6836 2.88C11.8196 2.88 11.9436 2.892 12.0556 2.916C12.1676 2.94 12.2596 2.972 12.3316 3.012L12.1396 4.392C12.0596 4.36 11.9596 4.336 11.8396 4.32C11.7276 4.304 11.5796 4.296 11.3956 4.296C11.1556 4.296 10.9236 4.356 10.6996 4.476C10.4756 4.588 10.2916 4.764 10.1476 5.004C10.0036 5.236 9.93159 5.532 9.93159 5.892V9H8.28759ZM19.2588 1.164V7.044C19.2588 7.332 19.3308 7.544 19.4748 7.68C19.6268 7.808 19.8308 7.872 20.0868 7.872C20.2868 7.872 20.4628 7.844 20.6148 7.788C20.7668 7.724 20.9028 7.64 21.0228 7.536L21.2868 8.628C21.0948 8.78 20.8548 8.9 20.5668 8.988C20.2788 9.076 19.9748 9.12 19.6548 9.12C19.2548 9.12 18.8988 9.06 18.5868 8.94C18.2828 8.82 18.0428 8.628 17.8668 8.364C17.6988 8.1 17.6148 7.748 17.6148 7.308V1.62L19.2588 1.164ZM21.1788 3V4.224H16.5108V3H21.1788ZM22.531 9V3H23.959L24.067 4.176C24.227 3.76 24.459 3.44 24.763 3.216C25.075 2.992 25.463 2.88 25.927 2.88C26.063 2.88 26.187 2.892 26.299 2.916C26.411 2.94 26.503 2.972 26.575 3.012L26.383 4.392C26.303 4.36 26.203 4.336 26.083 4.32C25.971 4.304 25.823 4.296 25.639 4.296C25.399 4.296 25.167 4.356 24.943 4.476C24.719 4.588 24.535 4.764 24.391 5.004C24.247 5.236 24.175 5.532 24.175 5.892V9H22.531ZM33.4735 3L31.0495 9.372C30.8575 9.916 30.6415 10.348 30.4015 10.668C30.1695 10.988 29.8975 11.22 29.5855 11.364C29.2815 11.508 28.9175 11.58 28.4935 11.58C28.1815 11.58 27.8935 11.54 27.6295 11.46C27.3735 11.388 27.1495 11.292 26.9575 11.172L27.3055 9.984C27.4575 10.104 27.6175 10.188 27.7855 10.236C27.9535 10.292 28.1455 10.32 28.3615 10.32C28.5855 10.32 28.7775 10.272 28.9375 10.176C29.1055 10.08 29.2455 9.888 29.3575 9.6L29.5615 9.084L28.9015 7.524L27.0655 3H28.8895L30.0295 6.6L30.3415 7.8L30.7135 6.528L31.8055 3H33.4735ZM41.671 5.172C41.671 4.828 41.571 4.56 41.371 4.368C41.179 4.176 40.923 4.08 40.603 4.08C40.307 4.08 40.047 4.156 39.823 4.308C39.599 4.46 39.435 4.712 39.331 5.064L37.927 4.632C38.063 4.104 38.359 3.68 38.815 3.36C39.279 3.04 39.899 2.88 40.675 2.88C41.203 2.88 41.663 2.964 42.055 3.132C42.447 3.292 42.751 3.536 42.967 3.864C43.191 4.192 43.303 4.604 43.303 5.1V7.536C43.303 7.84 43.447 7.992 43.735 7.992C43.871 7.992 43.999 7.972 44.119 7.932L44.023 8.952C43.815 9.056 43.555 9.108 43.243 9.108C42.963 9.108 42.711 9.06 42.487 8.964C42.263 8.868 42.087 8.724 41.959 8.532C41.831 8.332 41.767 8.084 41.767 7.788V7.74L42.055 7.692C42.007 7.996 41.875 8.256 41.659 8.472C41.443 8.68 41.179 8.84 40.867 8.952C40.563 9.064 40.247 9.12 39.919 9.12C39.511 9.12 39.159 9.06 38.863 8.94C38.567 8.812 38.339 8.628 38.179 8.388C38.019 8.148 37.939 7.852 37.939 7.5C37.939 7.052 38.083 6.688 38.371 6.408C38.659 6.12 39.071 5.924 39.607 5.82L41.863 5.364L41.851 6.384L40.411 6.672C40.139 6.728 39.931 6.804 39.787 6.9C39.651 6.988 39.583 7.136 39.583 7.344C39.583 7.544 39.655 7.696 39.799 7.8C39.951 7.904 40.131 7.956 40.339 7.956C40.507 7.956 40.671 7.936 40.831 7.896C40.991 7.856 41.135 7.792 41.263 7.704C41.391 7.616 41.491 7.496 41.563 7.344C41.635 7.192 41.671 7.008 41.671 6.792V5.172Z" fill="black"/>
<path d="M51.5138 9.12C50.9058 9.12 50.3498 9.012 49.8458 8.796C49.3498 8.58 48.9458 8.276 48.6338 7.884L49.5818 6.924C49.7738 7.212 50.0298 7.448 50.3498 7.632C50.6698 7.816 51.0498 7.908 51.4898 7.908C51.8018 7.908 52.0498 7.864 52.2338 7.776C52.4258 7.68 52.5218 7.532 52.5218 7.332C52.5218 7.204 52.4778 7.096 52.3898 7.008C52.3018 6.912 52.1258 6.836 51.8618 6.78L50.8058 6.564C50.1098 6.42 49.6138 6.204 49.3178 5.916C49.0298 5.62 48.8858 5.24 48.8858 4.776C48.8858 4.448 48.9818 4.14 49.1738 3.852C49.3738 3.564 49.6698 3.332 50.0618 3.156C50.4538 2.972 50.9418 2.88 51.5258 2.88C52.1258 2.88 52.6458 2.976 53.0858 3.168C53.5338 3.352 53.8858 3.628 54.1418 3.996L53.1578 4.956C52.9818 4.676 52.7498 4.464 52.4618 4.32C52.1818 4.168 51.8858 4.092 51.5738 4.092C51.3498 4.092 51.1578 4.116 50.9978 4.164C50.8378 4.212 50.7178 4.28 50.6378 4.368C50.5578 4.448 50.5178 4.552 50.5178 4.68C50.5178 4.808 50.5738 4.92 50.6858 5.016C50.7978 5.104 51.0018 5.18 51.2978 5.244L52.5218 5.496C53.1138 5.616 53.5378 5.82 53.7938 6.108C54.0498 6.388 54.1778 6.728 54.1778 7.128C54.1778 7.512 54.0738 7.856 53.8658 8.16C53.6658 8.456 53.3658 8.692 52.9658 8.868C52.5738 9.036 52.0898 9.12 51.5138 9.12ZM59.1488 5.172C59.1488 4.828 59.0488 4.56 58.8488 4.368C58.6568 4.176 58.4008 4.08 58.0808 4.08C57.7848 4.08 57.5248 4.156 57.3008 4.308C57.0768 4.46 56.9128 4.712 56.8088 5.064L55.4048 4.632C55.5408 4.104 55.8368 3.68 56.2928 3.36C56.7568 3.04 57.3768 2.88 58.1528 2.88C58.6808 2.88 59.1408 2.964 59.5328 3.132C59.9248 3.292 60.2288 3.536 60.4448 3.864C60.6688 4.192 60.7808 4.604 60.7808 5.1V7.536C60.7808 7.84 60.9248 7.992 61.2128 7.992C61.3488 7.992 61.4768 7.972 61.5968 7.932L61.5008 8.952C61.2928 9.056 61.0328 9.108 60.7208 9.108C60.4408 9.108 60.1888 9.06 59.9648 8.964C59.7408 8.868 59.5648 8.724 59.4368 8.532C59.3088 8.332 59.2448 8.084 59.2448 7.788V7.74L59.5328 7.692C59.4848 7.996 59.3528 8.256 59.1368 8.472C58.9208 8.68 58.6568 8.84 58.3448 8.952C58.0408 9.064 57.7248 9.12 57.3968 9.12C56.9888 9.12 56.6368 9.06 56.3408 8.94C56.0448 8.812 55.8168 8.628 55.6568 8.388C55.4968 8.148 55.4168 7.852 55.4168 7.5C55.4168 7.052 55.5608 6.688 55.8488 6.408C56.1368 6.12 56.5488 5.924 57.0848 5.82L59.3408 5.364L59.3288 6.384L57.8888 6.672C57.6168 6.728 57.4088 6.804 57.2648 6.9C57.1288 6.988 57.0608 7.136 57.0608 7.344C57.0608 7.544 57.1328 7.696 57.2768 7.8C57.4288 7.904 57.6088 7.956 57.8168 7.956C57.9848 7.956 58.1488 7.936 58.3088 7.896C58.4688 7.856 58.6128 7.792 58.7408 7.704C58.8688 7.616 58.9688 7.496 59.0408 7.344C59.1128 7.192 59.1488 7.008 59.1488 6.792V5.172ZM62.8595 9V3H64.3355L64.3955 4.08C64.5955 3.68 64.8675 3.38 65.2115 3.18C65.5635 2.98 65.9515 2.88 66.3755 2.88C66.8075 2.88 67.1955 2.98 67.5395 3.18C67.8915 3.38 68.1555 3.676 68.3315 4.068C68.4595 3.804 68.6315 3.584 68.8475 3.408C69.0635 3.232 69.3035 3.1 69.5675 3.012C69.8315 2.924 70.0995 2.88 70.3715 2.88C70.7635 2.88 71.1195 2.96 71.4395 3.12C71.7675 3.28 72.0275 3.52 72.2195 3.84C72.4115 4.16 72.5075 4.568 72.5075 5.064V9H70.8635V5.388C70.8635 4.948 70.7675 4.636 70.5755 4.452C70.3835 4.268 70.1355 4.176 69.8315 4.176C69.5915 4.176 69.3675 4.236 69.1595 4.356C68.9595 4.476 68.7995 4.656 68.6795 4.896C68.5675 5.128 68.5115 5.42 68.5115 5.772V9H66.8675V5.388C66.8675 4.948 66.7675 4.636 66.5675 4.452C66.3755 4.268 66.1275 4.176 65.8235 4.176C65.6155 4.176 65.4075 4.232 65.1995 4.344C64.9995 4.456 64.8315 4.632 64.6955 4.872C64.5675 5.112 64.5035 5.428 64.5035 5.82V9H62.8595ZM74.4432 11.52V3H75.9192L76.0272 4.908L75.8232 4.692C75.8952 4.34 76.0272 4.028 76.2192 3.756C76.4192 3.484 76.6712 3.272 76.9752 3.12C77.2792 2.96 77.6192 2.88 77.9952 2.88C78.4832 2.88 78.9192 3.004 79.3032 3.252C79.6872 3.5 79.9872 3.856 80.2032 4.32C80.4272 4.776 80.5392 5.332 80.5392 5.988C80.5392 6.644 80.4272 7.208 80.2032 7.68C79.9792 8.144 79.6712 8.5 79.2792 8.748C78.8952 8.996 78.4552 9.12 77.9592 9.12C77.4312 9.12 76.9912 8.972 76.6392 8.676C76.2952 8.38 76.0592 8.008 75.9312 7.56L76.0872 7.308V11.52H74.4432ZM77.4792 7.86C77.9192 7.86 78.2632 7.704 78.5112 7.392C78.7672 7.072 78.8952 6.608 78.8952 6C78.8952 5.392 78.7712 4.932 78.5232 4.62C78.2832 4.3 77.9432 4.14 77.5032 4.14C77.2232 4.14 76.9752 4.216 76.7592 4.368C76.5512 4.512 76.3872 4.724 76.2672 5.004C76.1472 5.276 76.0872 5.608 76.0872 6C76.0872 6.384 76.1432 6.716 76.2552 6.996C76.3672 7.276 76.5272 7.492 76.7352 7.644C76.9512 7.788 77.1992 7.86 77.4792 7.86ZM83.8267 0.372V7.152C83.8267 7.432 83.8747 7.628 83.9707 7.74C84.0667 7.852 84.2267 7.908 84.4507 7.908C84.5867 7.908 84.6987 7.9 84.7867 7.884C84.8747 7.86 84.9867 7.828 85.1227 7.788L84.9787 8.868C84.8427 8.948 84.6707 9.008 84.4627 9.048C84.2627 9.096 84.0627 9.12 83.8627 9.12C83.2787 9.12 82.8507 8.98 82.5787 8.7C82.3147 8.412 82.1827 7.956 82.1827 7.332V0.372H83.8267ZM89.0627 9.12C88.4307 9.12 87.8787 8.996 87.4067 8.748C86.9427 8.5 86.5827 8.144 86.3267 7.68C86.0707 7.216 85.9427 6.656 85.9427 6C85.9427 5.344 86.0707 4.784 86.3267 4.32C86.5827 3.856 86.9387 3.5 87.3947 3.252C87.8587 3.004 88.3867 2.88 88.9787 2.88C89.5867 2.88 90.1027 3.004 90.5267 3.252C90.9507 3.492 91.2747 3.824 91.4987 4.248C91.7227 4.664 91.8347 5.14 91.8347 5.676C91.8347 5.836 91.8307 5.988 91.8227 6.132C91.8147 6.276 91.8027 6.404 91.7867 6.516H86.9987V5.376H91.0667L90.2747 5.664C90.2747 5.16 90.1587 4.772 89.9267 4.5C89.7027 4.228 89.3827 4.092 88.9667 4.092C88.6627 4.092 88.3987 4.164 88.1747 4.308C87.9587 4.452 87.7947 4.668 87.6827 4.956C87.5707 5.236 87.5147 5.592 87.5147 6.024C87.5147 6.448 87.5747 6.8 87.6947 7.08C87.8227 7.352 87.9987 7.556 88.2227 7.692C88.4547 7.828 88.7307 7.896 89.0507 7.896C89.4027 7.896 89.6867 7.828 89.9027 7.692C90.1187 7.556 90.2867 7.368 90.4067 7.128L91.7147 7.632C91.5867 7.944 91.3907 8.212 91.1267 8.436C90.8707 8.66 90.5627 8.832 90.2027 8.952C89.8507 9.064 89.4707 9.12 89.0627 9.12ZM97.3759 11.52V3H98.8519L98.9599 4.908L98.7559 4.692C98.8279 4.34 98.9599 4.028 99.1519 3.756C99.3519 3.484 99.6039 3.272 99.9079 3.12C100.212 2.96 100.552 2.88 100.928 2.88C101.416 2.88 101.852 3.004 102.236 3.252C102.62 3.5 102.92 3.856 103.136 4.32C103.36 4.776 103.472 5.332 103.472 5.988C103.472 6.644 103.36 7.208 103.136 7.68C102.912 8.144 102.604 8.5 102.212 8.748C101.828 8.996 101.388 9.12 100.892 9.12C100.364 9.12 99.9239 8.972 99.5719 8.676C99.2279 8.38 98.9919 8.008 98.8639 7.56L99.0199 7.308V11.52H97.3759ZM100.412 7.86C100.852 7.86 101.196 7.704 101.444 7.392C101.7 7.072 101.828 6.608 101.828 6C101.828 5.392 101.704 4.932 101.456 4.62C101.216 4.3 100.876 4.14 100.436 4.14C100.156 4.14 99.9079 4.216 99.6919 4.368C99.4839 4.512 99.3199 4.724 99.1999 5.004C99.0799 5.276 99.0199 5.608 99.0199 6C99.0199 6.384 99.0759 6.716 99.1879 6.996C99.2999 7.276 99.4599 7.492 99.6679 7.644C99.8839 7.788 100.132 7.86 100.412 7.86ZM105.139 9V3H106.567L106.675 4.176C106.835 3.76 107.067 3.44 107.371 3.216C107.683 2.992 108.071 2.88 108.535 2.88C108.671 2.88 108.795 2.892 108.907 2.916C109.019 2.94 109.111 2.972 109.183 3.012L108.991 4.392C108.911 4.36 108.811 4.336 108.691 4.32C108.579 4.304 108.431 4.296 108.247 4.296C108.007 4.296 107.775 4.356 107.551 4.476C107.327 4.588 107.143 4.764 106.999 5.004C106.855 5.236 106.783 5.532 106.783 5.892V9H105.139ZM113.061 2.88C113.669 2.88 114.201 3.004 114.657 3.252C115.121 3.5 115.481 3.856 115.737 4.32C116.001 4.784 116.133 5.344 116.133 6C116.133 6.648 116.001 7.208 115.737 7.68C115.481 8.144 115.121 8.5 114.657 8.748C114.201 8.996 113.669 9.12 113.061 9.12C112.461 9.12 111.929 8.996 111.465 8.748C111.001 8.5 110.637 8.144 110.373 7.68C110.117 7.208 109.989 6.648 109.989 6C109.989 5.344 110.117 4.784 110.373 4.32C110.637 3.856 111.001 3.5 111.465 3.252C111.929 3.004 112.461 2.88 113.061 2.88ZM113.061 4.104C112.757 4.104 112.497 4.176 112.281 4.32C112.073 4.456 111.913 4.664 111.801 4.944C111.689 5.224 111.633 5.576 111.633 6C111.633 6.424 111.689 6.776 111.801 7.056C111.913 7.336 112.073 7.548 112.281 7.692C112.497 7.828 112.757 7.896 113.061 7.896C113.357 7.896 113.609 7.828 113.817 7.692C114.033 7.548 114.197 7.336 114.309 7.056C114.421 6.776 114.477 6.424 114.477 6C114.477 5.576 114.421 5.224 114.309 4.944C114.197 4.664 114.033 4.456 113.817 4.32C113.609 4.176 113.357 4.104 113.061 4.104ZM118.576 2.136C118.232 2.136 117.976 2.064 117.808 1.92C117.64 1.768 117.556 1.548 117.556 1.26C117.556 0.964 117.64 0.743999 117.808 0.599999C117.976 0.447999 118.232 0.372 118.576 0.372C118.92 0.372 119.176 0.447999 119.344 0.599999C119.512 0.743999 119.596 0.964 119.596 1.26C119.596 1.548 119.512 1.768 119.344 1.92C119.176 2.064 118.92 2.136 118.576 2.136ZM119.392 3V9.444C119.392 9.964 119.296 10.38 119.104 10.692C118.92 11.004 118.668 11.228 118.348 11.364C118.028 11.508 117.664 11.58 117.256 11.58C116.96 11.58 116.692 11.544 116.452 11.472C116.212 11.408 116.004 11.316 115.828 11.196L116.08 10.02C116.176 10.1 116.296 10.168 116.44 10.224C116.584 10.28 116.744 10.308 116.92 10.308C117.168 10.308 117.368 10.232 117.52 10.08C117.672 9.928 117.748 9.664 117.748 9.288V3H119.392ZM124.159 9.12C123.527 9.12 122.975 8.996 122.503 8.748C122.039 8.5 121.679 8.144 121.423 7.68C121.167 7.216 121.039 6.656 121.039 6C121.039 5.344 121.167 4.784 121.423 4.32C121.679 3.856 122.035 3.5 122.491 3.252C122.955 3.004 123.483 2.88 124.075 2.88C124.683 2.88 125.199 3.004 125.623 3.252C126.047 3.492 126.371 3.824 126.595 4.248C126.819 4.664 126.931 5.14 126.931 5.676C126.931 5.836 126.927 5.988 126.919 6.132C126.911 6.276 126.899 6.404 126.883 6.516H122.095V5.376H126.163L125.371 5.664C125.371 5.16 125.255 4.772 125.023 4.5C124.799 4.228 124.479 4.092 124.063 4.092C123.759 4.092 123.495 4.164 123.271 4.308C123.055 4.452 122.891 4.668 122.779 4.956C122.667 5.236 122.611 5.592 122.611 6.024C122.611 6.448 122.671 6.8 122.791 7.08C122.919 7.352 123.095 7.556 123.319 7.692C123.551 7.828 123.827 7.896 124.147 7.896C124.499 7.896 124.783 7.828 124.999 7.692C125.215 7.556 125.383 7.368 125.503 7.128L126.811 7.632C126.683 7.944 126.487 8.212 126.223 8.436C125.967 8.66 125.659 8.832 125.299 8.952C124.947 9.064 124.567 9.12 124.159 9.12ZM131.288 2.88C131.824 2.88 132.276 2.96 132.644 3.12C133.02 3.272 133.32 3.484 133.544 3.756C133.776 4.02 133.94 4.316 134.036 4.644L132.5 5.196C132.42 4.836 132.284 4.564 132.092 4.38C131.9 4.196 131.64 4.104 131.312 4.104C131.008 4.104 130.748 4.176 130.532 4.32C130.316 4.456 130.152 4.668 130.04 4.956C129.928 5.236 129.872 5.588 129.872 6.012C129.872 6.436 129.928 6.788 130.04 7.068C130.16 7.348 130.328 7.556 130.544 7.692C130.768 7.828 131.028 7.896 131.324 7.896C131.564 7.896 131.768 7.856 131.936 7.776C132.104 7.688 132.24 7.564 132.344 7.404C132.456 7.244 132.532 7.052 132.572 6.828L134.06 7.308C133.972 7.668 133.808 7.984 133.568 8.256C133.328 8.528 133.02 8.74 132.644 8.892C132.268 9.044 131.832 9.12 131.336 9.12C130.72 9.12 130.176 8.996 129.704 8.748C129.232 8.5 128.868 8.144 128.612 7.68C128.356 7.216 128.228 6.656 128.228 6C128.228 5.344 128.356 4.784 128.612 4.32C128.868 3.856 129.228 3.5 129.692 3.252C130.156 3.004 130.688 2.88 131.288 2.88ZM137.702 1.164V7.044C137.702 7.332 137.774 7.544 137.918 7.68C138.07 7.808 138.274 7.872 138.53 7.872C138.73 7.872 138.906 7.844 139.058 7.788C139.21 7.724 139.346 7.64 139.466 7.536L139.73 8.628C139.538 8.78 139.298 8.9 139.01 8.988C138.722 9.076 138.418 9.12 138.098 9.12C137.698 9.12 137.342 9.06 137.03 8.94C136.726 8.82 136.486 8.628 136.31 8.364C136.142 8.1 136.058 7.748 136.058 7.308V1.62L137.702 1.164ZM139.622 3V4.224H134.954V3H139.622Z" fill="#FA782F"/>
</svg>
